<?xml version="1.0" encoding="utf-8"?>
<!-- Generator: Adobe Illustrator 16.0.0, SVG Export Plug-In . SVG Version: 6.00 Build 0)  -->
<!DOCTYPE svg PUBLIC "-//W3C//DTD SVG 1.1//EN" "http://www.w3.org/Graphics/SVG/1.1/DTD/svg11.dtd">
<svg version="1.1" id="Layer_1" xmlns="http://www.w3.org/2000/svg" xmlns:xlink="http://www.w3.org/1999/xlink" x="0px" y="0px"
	 width="200px" height="200px" viewBox="0 0 200 200" enable-background="new 0 0 200 200" xml:space="preserve">
<g display="none">
	<g display="inline">
		<path fill="#A7A7A7" d="M176.07,161.363H63.061c-4.658,0-8.433-3.774-8.433-8.431c0-4.659,3.775-8.434,8.433-8.434h113.007
			c4.658,0,8.433,3.774,8.433,8.434C184.5,157.589,180.728,161.363,176.07,161.363z"/>
		<path fill="#A7A7A7" d="M176.07,108.433H63.061c-4.658,0-8.433-3.774-8.433-8.433c0-4.658,3.775-8.433,8.433-8.433h113.007
			c4.658,0,8.433,3.775,8.433,8.433C184.503,104.658,180.728,108.433,176.07,108.433z"/>
		<path fill="#A7A7A7" d="M176.07,55.5H63.061c-4.658,0-8.433-3.775-8.433-8.433c0-4.657,3.775-8.433,8.433-8.433h113.007
			c4.658,0,8.433,3.775,8.433,8.433C184.5,51.726,180.728,55.5,176.07,55.5z"/>
		<circle fill="#A7A7A7" cx="26.825" cy="47.719" r="11.325"/>
		<circle fill="#A7A7A7" cx="26.825" cy="100" r="11.325"/>
		<circle fill="#A7A7A7" cx="26.825" cy="152.28" r="11.325"/>
	</g>
</g>
<g display="none">
	<g display="inline">
		<path fill="#354D90" d="M176.07,161.365H63.061c-4.658,0-8.433-3.775-8.433-8.433c0-4.658,3.774-8.433,8.433-8.433h113.007
			c4.657,0,8.433,3.774,8.433,8.433C184.5,157.59,180.728,161.365,176.07,161.365z"/>
		<path fill="#354D90" d="M176.07,108.433H63.061c-4.658,0-8.433-3.774-8.433-8.433c0-4.657,3.774-8.433,8.433-8.433h113.007
			c4.657,0,8.433,3.775,8.433,8.433C184.503,104.658,180.728,108.433,176.07,108.433z"/>
		<path fill="#354D90" d="M176.07,55.5H63.061c-4.658,0-8.433-3.775-8.433-8.433c0-4.657,3.774-8.433,8.433-8.433h113.007
			c4.657,0,8.433,3.775,8.433,8.433C184.5,51.725,180.728,55.5,176.07,55.5z"/>
		<circle fill="#354D90" cx="26.825" cy="47.72" r="11.325"/>
		<circle fill="#354D90" cx="26.825" cy="100" r="11.325"/>
		<circle fill="#354D90" cx="26.825" cy="152.28" r="11.325"/>
	</g>
</g>
<g>
	<g>
		<path fill="#A7A7A7" d="M181.586,30.697H18.414c-1.609,0-2.914,1.347-2.914,3.013v132.581c0,1.666,1.305,3.013,2.914,3.013
			h163.172c1.608,0,2.914-1.347,2.914-3.013V33.71C184.5,32.044,183.194,30.697,181.586,30.697z M178.672,163.276H21.327V36.723
			h157.345V163.276z"/>
		<path fill="#A7A7A7" d="M62.121,97.403c8.948,0,16.227-7.527,16.227-16.777c0-9.256-7.278-16.783-16.227-16.783
			c-8.949,0-16.227,7.527-16.227,16.78S53.172,97.403,62.121,97.403z M62.121,69.868c5.734,0,10.399,4.827,10.399,10.754
			c0,5.927-4.666,10.754-10.399,10.754c-5.735,0-10.4-4.824-10.4-10.751S56.386,69.868,62.121,69.868z"/>
		<path fill="#A7A7A7" d="M35.896,151.225c0.682,0,1.369-0.247,1.923-0.75l47.533-43.276l30.018,31.039
			c1.14,1.179,2.981,1.179,4.12,0c1.14-1.178,1.14-3.082,0-4.261l-14.008-14.483l26.752-30.295l32.813,31.105
			c1.188,1.125,3.03,1.039,4.118-0.187c1.087-1.226,1.008-3.134-0.181-4.258l-34.966-33.145c-0.571-0.54-1.332-0.808-2.098-0.79
			c-0.772,0.036-1.5,0.388-2.022,0.979l-28.538,32.323l-13.819-14.292c-1.09-1.124-2.833-1.182-3.986-0.134l-49.584,45.147
			c-1.21,1.101-1.326,3.004-0.263,4.255C34.285,150.88,35.089,151.225,35.896,151.225z"/>
	</g>
</g>
</svg>
