<?xml version="1.0" encoding="utf-8"?>
<!-- Generator: Adobe Illustrator 16.0.0, SVG Export Plug-In . SVG Version: 6.00 Build 0)  -->
<!DOCTYPE svg PUBLIC "-//W3C//DTD SVG 1.1//EN" "http://www.w3.org/Graphics/SVG/1.1/DTD/svg11.dtd">
<svg version="1.1" id="Capa_1" xmlns="http://www.w3.org/2000/svg" xmlns:xlink="http://www.w3.org/1999/xlink" x="0px" y="0px"
	 width="460.5px" height="460.5px" viewBox="0 0 460.5 460.5" enable-background="new 0 0 460.5 460.5" xml:space="preserve">
<g>
	<g>
		<g>
			<path d="M255.766,121.459c-1.8-12.602-12.769-22.106-25.516-22.106c-8.198,0-15.984,3.956-20.824,10.585
				c-0.989,1.352-0.693,3.249,0.659,4.237c1.348,0.985,3.248,0.693,4.235-0.661c3.705-5.069,9.659-8.097,15.929-8.097
				c9.748,0,18.136,7.265,19.511,16.897c0.217,1.513,1.516,2.605,2.999,2.605c0.142,0,0.287-0.011,0.433-0.03
				C254.848,124.652,256,123.116,255.766,121.459z"/>
		</g>
	</g>
	<g>
		<g>
			<path d="M299.56,155.404l-9.097-15.161c-0.548-0.914-1.535-1.472-2.602-1.472h-8.717c-1.674,0-3.033,1.358-3.033,3.032
				c0,1.674,1.359,3.032,3.033,3.032h7l5.459,9.097H168.894l5.458-9.097h3.212c1.673,0,3.031-1.358,3.031-3.032
				c0-1.673-1.358-3.032-3.031-3.032h-4.929c-1.065,0-2.053,0.558-2.6,1.472l-9.097,15.161c-0.563,0.938-0.576,2.104-0.039,3.056
				c0.538,0.95,1.545,1.538,2.639,1.538h133.42c1.094,0,2.1-0.588,2.638-1.538C300.136,157.509,300.121,156.341,299.56,155.404z"/>
		</g>
	</g>
	<g>
		<g>
			<path d="M284.445,127.445c-0.426-0.685-1.104-1.171-1.887-1.354l-41.336-9.668c-0.783-0.184-1.607-0.047-2.291,0.376
				c-0.684,0.425-1.17,1.103-1.354,1.886l-3.117,13.326c-0.382,1.63,0.631,3.261,2.262,3.641c1.631,0.382,3.264-0.631,3.644-2.262
				l2.428-10.372l35.431,8.288l-5.567,23.803c-0.382,1.631,0.632,3.262,2.263,3.642c0.232,0.055,0.467,0.08,0.695,0.08
				c1.376,0,2.623-0.943,2.945-2.341l6.261-26.755C285.004,128.952,284.869,128.128,284.445,127.445z"/>
		</g>
	</g>
	<g>
		<g>
			<path d="M231.854,134.613l-2.764-23.368c-0.094-0.799-0.502-1.528-1.134-2.026c-0.633-0.498-1.431-0.725-2.233-0.63
				l-50.717,5.995c-1.662,0.197-2.851,1.704-2.654,3.367l4.606,38.976c0.184,1.543,1.491,2.677,3.008,2.677
				c0.118,0,0.24-0.008,0.361-0.021c1.66-0.197,2.85-1.704,2.654-3.368l-4.252-35.966l44.695-5.282l2.405,20.356
				c0.197,1.663,1.696,2.845,3.368,2.656C230.859,137.784,232.048,136.276,231.854,134.613z"/>
		</g>
	</g>
	<g>
		<g>
			<path d="M255.834,155.813l-6.02-25.029c-0.188-0.781-0.68-1.457-1.363-1.877c-0.686-0.416-1.508-0.547-2.293-0.36l-48.849,11.748
				c-1.628,0.391-2.63,2.029-2.239,3.657l3.008,12.51c0.392,1.63,2.029,2.633,3.656,2.239c1.629-0.391,2.632-2.028,2.24-3.657
				l-2.3-9.563l42.952-10.328l5.31,22.08c0.334,1.39,1.578,2.322,2.946,2.322c0.234,0,0.474-0.027,0.712-0.085
				C255.223,159.079,256.227,157.441,255.834,155.813z"/>
		</g>
	</g>
	<g>
		<g>
			<path d="M299.99,156.811c-0.083-1.611-1.415-2.876-3.029-2.876h-133.42c-1.615,0-2.945,1.264-3.029,2.876l-6.064,118.259
				c-0.043,0.83,0.257,1.642,0.829,2.244c0.573,0.601,1.367,0.942,2.199,0.942h145.548c0.831,0,1.626-0.342,2.2-0.942
				c0.572-0.604,0.872-1.414,0.83-2.244L299.99,156.811z M160.666,272.191l5.754-112.193h127.658l5.754,112.193H160.666z"/>
		</g>
	</g>
	<g>
		<g>
			<path d="M252.991,166.063c-5.017,0-9.097,4.08-9.097,9.097c0,5.017,4.08,9.097,9.097,9.097s9.098-4.08,9.098-9.097
				C262.089,170.143,258.008,166.063,252.991,166.063z M252.991,178.191c-1.673,0-3.032-1.359-3.032-3.031
				c0-1.672,1.361-3.032,3.032-3.032c1.673,0,3.032,1.36,3.032,3.032C256.023,176.832,254.664,178.191,252.991,178.191z"/>
		</g>
	</g>
	<g>
		<g>
			<path d="M207.508,166.063c-5.017,0-9.098,4.08-9.098,9.097c0,5.017,4.081,9.097,9.098,9.097c5.017,0,9.097-4.08,9.097-9.097
				C216.605,170.143,212.524,166.063,207.508,166.063z M207.508,178.191c-1.672,0-3.032-1.359-3.032-3.031
				c0-1.672,1.36-3.032,3.032-3.032c1.672,0,3.031,1.36,3.031,3.032C210.539,176.832,209.18,178.191,207.508,178.191z"/>
		</g>
	</g>
	<g>
		<g>
			<path d="M252.991,175.159h-0.233c-1.673,0-3.031,1.358-3.031,3.032c0,0.414,0.082,0.809,0.232,1.168v15.509
				c0,10.867-8.841,19.71-19.709,19.71s-19.711-8.842-19.711-19.71v-16.677c0-1.674-1.357-3.031-3.031-3.031
				c-1.674,0-3.032,1.357-3.032,3.031v16.678c0,14.212,11.563,25.773,25.774,25.773s25.773-11.562,25.773-25.773v-16.678
				C256.023,176.518,254.665,175.159,252.991,175.159z"/>
		</g>
	</g>
</g>
<g enable-background="new    ">
	<path d="M189.31,335.121v7.055c-0.052,0.569-0.129,1.15-0.232,1.744c-0.104,0.595-0.31,1.176-0.62,1.744
		c-0.465,0.725-0.905,1.215-1.318,1.473c-0.415,0.26-0.75,0.465-1.008,0.62c-0.259,0.155-0.595,0.232-1.008,0.232
		c-0.775,0-1.5-0.206-2.171-0.62c-0.517-0.31-0.93-0.697-1.24-1.163c-0.31-0.465-0.556-0.903-0.736-1.317
		c-0.182-0.413-0.324-0.956-0.426-1.628v-12.946h-1.706c-0.879,0.052-1.835-0.025-2.869-0.232c-1.034-0.206-1.887-0.826-2.558-1.86
		c-0.104-0.206-0.207-0.466-0.31-0.775v10.698c0,0.517-0.143,1.034-0.426,1.55c-0.285,0.518-0.633,0.97-1.046,1.357
		c-0.415,0.387-0.879,0.724-1.396,1.008c-0.517,0.284-1.008,0.452-1.473,0.504c-1.344,0.207-2.74,0.259-4.186,0.154
		c-1.447-0.103-2.817-0.154-4.108-0.154c-1.396,0-2.481-0.013-3.256-0.039c-0.775-0.025-1.473-0.051-2.093-0.078
		c-0.62-0.025-1.306-0.051-2.055-0.077c-0.75-0.025-1.822-0.064-3.217-0.116c-1.655-0.103-2.791-0.801-3.411-2.093
		s-0.93-2.609-0.93-3.954c0-1.085-0.013-2.376-0.039-3.876c-0.027-1.498-0.052-3.035-0.078-4.612
		c-0.027-1.576-0.039-3.127-0.039-4.651s0.025-2.83,0.078-3.915c0.051-0.671,0.064-1.266,0.039-1.783
		c-0.027-0.516-0.014-1.033,0.039-1.55c0.051-0.517,0.142-1.021,0.271-1.512c0.128-0.491,0.349-1.021,0.659-1.59
		c0.361-0.671,0.878-1.214,1.55-1.628c0.671-0.413,1.369-0.659,2.093-0.736c0.723-0.077,1.434,0.014,2.132,0.271
		c0.698,0.259,1.252,0.725,1.667,1.396c0.826,1.396,1.253,2.623,1.279,3.683c0.025,1.06,0.012,2.416-0.039,4.069
		c0.465,0,1.008,0,1.628,0s1.202,0,1.744,0s1.02,0,1.434,0c0.413,0,0.646,0,0.698,0h1.008h2.713c0.051-0.568,0.078-1.02,0.078-1.356
		c0-0.336,0-0.633,0-0.892c0-0.258-0.014-0.543-0.039-0.853c-0.026-0.311-0.039-0.698-0.039-1.163c0-0.878,0.142-1.834,0.426-2.868
		c0.283-1.033,0.814-1.809,1.589-2.326c0.568-0.413,1.343-0.632,2.326-0.658c0.981-0.025,1.756,0.168,2.326,0.581
		c0.568,0.414,0.994,1.008,1.279,1.783c0.284,0.775,0.478,1.55,0.582,2.325c0.155,0.931,0.232,1.913,0.232,2.946v7.442
		c0-0.155,0.025-0.284,0.078-0.388c0.155-0.568,0.438-1.047,0.853-1.435c0.413-0.388,1.136-0.685,2.171-0.892
		c0.258-0.103,0.839-0.167,1.744-0.193c0.904-0.025,1.77-0.064,2.597-0.116v-7.907c-0.052-0.259-0.027-0.84,0.077-1.744
		c0.103-0.904,0.284-1.667,0.543-2.287c0.568-1.086,1.628-1.706,3.178-1.86c1.602-0.206,2.816,0.182,3.644,1.162
		c0.361,0.415,0.594,0.814,0.698,1.202c0.103,0.388,0.232,0.788,0.388,1.201c0.155,0.518,0.219,1.06,0.194,1.628
		c-0.027,0.569-0.039,1.138-0.039,1.706L189.31,335.121z M202.101,363.571c0.258,1.964-0.078,3.488-1.008,4.574
		c-0.62,0.723-1.292,1.162-2.016,1.317c-0.724,0.155-1.112,0.232-1.163,0.232h-38.761c-2.12,0-3.954-0.323-5.504-0.969
		c-1.55-0.646-2.326-1.563-2.326-2.752v-11.783c-0.104-1.137-0.104-2.299,0-3.488c0.103-1.086,0.529-1.964,1.279-2.636
		c0.749-0.671,1.718-1.008,2.907-1.008c0.258,0,0.723,0.026,1.395,0.077c0.671,0.052,1.136,0.13,1.396,0.232
		c0.671,0.207,1.202,0.504,1.589,0.892s0.684,0.853,0.892,1.396c0.206,0.543,0.335,1.112,0.387,1.705
		c0.051,0.595,0.103,1.177,0.155,1.745c0,0.259,0.012,0.749,0.039,1.473c0.025,0.725,0.051,1.486,0.078,2.287
		c0.025,0.802,0.051,1.563,0.078,2.286c0.025,0.725,0.064,1.163,0.116,1.318c0.155,0.052,0.582,0.116,1.279,0.193
		c0.697,0.078,2.002,0.116,3.915,0.116c1.653,0,2.675-0.026,3.062-0.077c0.388-0.051,0.607-0.077,0.659-0.077h28.063
		c0.671,0.205,1.213,0.426,1.628,0.658c0.413,0.233,0.801,0.543,1.163,0.931C201.764,362.603,201.997,363.055,202.101,363.571z
		 M161.092,326.903c-0.052,0-0.271,0-0.659,0s-0.879,0-1.473,0c-0.595,0-1.229,0-1.899,0c-0.672,0-1.318,0-1.938,0v5.117
		c0,0.568,0.025,0.956,0.077,1.162c0.051,0.207,0.361,0.337,0.931,0.388c0.31,0,0.826,0,1.55,0c0.723,0,1.512,0,2.364,0
		c0.853,0,1.679,0,2.481,0c0.801,0,1.407,0,1.822,0c-0.052-0.258-0.065-0.736-0.039-1.434c0.025-0.698,0.039-1.435,0.039-2.21
		v-3.023H161.092z M192.798,314.5c0-0.568,0-1.136,0-1.705c0-0.568,0.078-1.111,0.233-1.628c0.31-0.879,0.775-1.653,1.396-2.326
		c0.413-0.516,0.903-0.878,1.473-1.085c0.568-0.206,1.291-0.258,2.17-0.155c1.396,0.207,2.352,0.88,2.869,2.016
		c0.31,0.62,0.49,1.356,0.542,2.209c0.051,0.854,0.051,1.409,0,1.667v29.846c0,0.053-0.013,0.232-0.039,0.543
		c-0.027,0.311-0.104,0.686-0.233,1.124c-0.129,0.439-0.336,0.892-0.62,1.356c-0.285,0.466-0.686,0.853-1.202,1.163
		c-0.362,0.207-0.659,0.349-0.891,0.427c-0.233,0.077-0.556,0.116-0.969,0.116c-0.827,0-1.68-0.259-2.558-0.775
		c-0.259-0.206-0.492-0.438-0.698-0.698c-0.207-0.258-0.414-0.542-0.62-0.853c-0.775-1.446-1.124-3.035-1.046-4.768
		c0.077-1.73,0.116-3.397,0.116-5c0-0.051,0-0.606,0-1.667c0-1.059,0-2.364,0-3.915c0-1.55,0-3.242,0-5.077c0-1.834,0-3.527,0-5.078
		c0-1.55,0.012-2.868,0.039-3.953C192.785,315.198,192.798,314.604,192.798,314.5z"/>
	<path d="M237.682,356.439c1.499,0,2.855,0.259,4.07,0.775c1.214,0.517,1.925,1.603,2.133,3.256c0.103,0.826-0.014,1.576-0.35,2.248
		c-0.336,0.671-0.789,1.24-1.356,1.705c-0.569,0.466-1.229,0.826-1.978,1.086c-0.749,0.258-1.46,0.413-2.131,0.465
		c-0.57,0-1.564,0-2.984,0c-1.422,0-2.998,0-4.729,0c-1.732,0-3.502,0-5.31,0c-1.81,0-3.333,0-4.574,0h-0.62
		c-1.189-0.052-2.417-0.104-3.683-0.155c-1.267-0.052-2.494-0.259-3.682-0.62c-0.827-0.259-1.603-0.725-2.326-1.396
		c-0.725-0.672-1.292-1.447-1.706-2.325c-0.259-0.569-0.439-1.253-0.542-2.055c-0.104-0.801-0.182-1.576-0.233-2.325
		c-0.052-0.749-0.065-1.408-0.039-1.978c0.025-0.567,0.039-0.878,0.039-0.93v-32.947c0-0.154-0.026-0.567-0.077-1.24
		c-0.052-0.671-0.065-1.446-0.039-2.325c0.025-0.878,0.103-1.783,0.233-2.714c0.128-0.93,0.399-1.705,0.814-2.325
		c0.31-0.516,0.865-0.931,1.667-1.24c0.801-0.311,1.628-0.543,2.481-0.698c0.853-0.154,1.628-0.244,2.326-0.271
		c0.697-0.025,1.124-0.038,1.279-0.038h18.14c0.051,0,0.451,0,1.201,0c0.749,0,1.563,0.091,2.442,0.271
		c0.878,0.182,1.731,0.479,2.558,0.892c0.826,0.414,1.369,1.034,1.629,1.86c0.103,0.31,0.167,0.686,0.193,1.124
		c0.025,0.439,0.039,0.904,0.039,1.396s-0.039,0.943-0.116,1.356c-0.077,0.414-0.169,0.725-0.271,0.93
		c-0.362,0.673-1.008,1.138-1.938,1.396c-1.034,0.26-2.507,0.388-4.418,0.388c-0.311,0-0.659,0-1.047,0s-0.982-0.012-1.783-0.038
		c-0.802-0.026-1.912-0.039-3.333-0.039c-1.422,0-3.321,0-5.698,0c-0.724,0-1.461,0.026-2.209,0.077
		c-0.75,0.053-1.306,0.155-1.667,0.311c-0.362,0.155-0.634,0.453-0.814,0.892c-0.182,0.439-0.31,0.93-0.388,1.473
		s-0.116,1.073-0.116,1.589c0,0.518,0.025,0.931,0.078,1.24v0.078l0.31,26.822c0,1.034,0.232,1.874,0.698,2.52
		c0.465,0.646,1.291,0.969,2.48,0.969c0.155,0,0.71,0.039,1.667,0.116c0.956,0.078,2.171,0.144,3.644,0.194
		c1.473,0.052,3.088,0.104,4.845,0.155C234.244,356.414,235.977,356.439,237.682,356.439z M250.396,341.788
		c-0.363-0.051-0.957-0.09-1.783-0.116c-0.828-0.025-1.719-0.039-2.675-0.039c-0.957,0-1.849,0-2.675,0
		c-0.827,0-1.422-0.025-1.783-0.077c-0.879-0.052-1.719-0.259-2.52-0.621c-0.801-0.36-1.486-0.825-2.054-1.395
		c-0.569-0.568-0.957-1.267-1.163-2.094c-0.207-0.826-0.182-1.73,0.078-2.713c0.103-0.413,0.322-0.853,0.658-1.318
		c0.336-0.465,0.659-0.826,0.969-1.085c0.724-0.516,1.524-0.826,2.404-0.931c1.498-0.103,3.242-0.154,5.232-0.154
		c1.988,0,3.811-0.051,5.465-0.155c0.051-1.24,0.078-2.403,0.078-3.488c0-1.086,0-2.183,0-3.295c0-1.11-0.014-2.273-0.039-3.488
		c-0.027-1.214-0.039-2.57-0.039-4.07c0-0.671,0.012-1.407,0.039-2.209c0.025-0.801,0.09-1.602,0.193-2.403
		c0.104-0.801,0.283-1.551,0.543-2.248c0.258-0.698,0.62-1.279,1.086-1.744c0.774-0.671,1.601-1.008,2.48-1.008h0.154
		c1.24,0.052,2.235,0.426,2.984,1.124c0.749,0.697,1.318,1.538,1.706,2.52c0.388,0.982,0.632,2.003,0.736,3.062
		c0.103,1.061,0.155,2.004,0.155,2.83v46.513c0,0.051,0,0.297,0,0.736c0,0.438-0.053,0.97-0.155,1.59
		c-0.104,0.62-0.259,1.24-0.465,1.86c-0.207,0.62-0.543,1.136-1.008,1.551c-0.362,0.36-0.88,0.646-1.55,0.853
		c-0.673,0.206-1.293,0.31-1.861,0.31c-1.24,0-2.223-0.414-2.945-1.24c-0.673-0.725-1.138-1.486-1.396-2.287
		c-0.259-0.802-0.439-1.641-0.542-2.52c0-0.052,0.013-0.349,0.038-0.891c0.025-0.543,0.039-1.59,0.039-3.14
		c0-1.551-0.026-3.772-0.077-6.667C250.654,350.444,250.551,346.594,250.396,341.788z"/>
	<path d="M315.202,333.648c0.879,0.052,1.771,0.182,2.676,0.387c0.902,0.208,1.717,0.595,2.441,1.163
		c0.723,0.569,1.086,1.318,1.086,2.248c0,0.518-0.092,1.086-0.271,1.706c-0.182,0.62-0.426,1.06-0.736,1.317
		c-0.414,0.414-0.943,0.711-1.59,0.892c-0.646,0.182-1.279,0.311-1.898,0.388c-0.621,0.077-1.152,0.116-1.59,0.116
		c-0.439,0-0.686,0-0.736,0l-41.319,0.077c-1.189,0.053-2.416,0.053-3.682,0c-1.268-0.051-2.34-0.438-3.218-1.162
		c-1.189-0.879-1.783-1.887-1.783-3.023c0-0.724,0.245-1.435,0.737-2.132c0.49-0.698,1.148-1.175,1.977-1.435
		c1.085-0.36,2.195-0.529,3.333-0.504c1.136,0.027,2.299,0.014,3.488-0.038c1.241-0.052,2.313-0.078,3.218-0.078
		c0.903,0,1.783,0,2.635,0c0.854,0,1.744,0.014,2.676,0.039c0.93,0.026,2.04,0.039,3.332,0.039v-4.651h-8.062
		c-0.517,0-1.021-0.013-1.512-0.039c-0.491-0.025-0.995-0.064-1.512-0.116c-0.673-0.051-1.396-0.078-2.171-0.078
		s-1.447-0.205-2.016-0.62c-0.154,0-0.232-0.051-0.232-0.154c-0.518-0.413-0.865-1.021-1.047-1.822
		c-0.182-0.801-0.271-1.485-0.271-2.055c-0.051-0.93-0.115-1.86-0.193-2.79c-0.077-0.931-0.116-1.834-0.116-2.714
		c0-1.343,0-2.661,0-3.953c0-1.291,0.128-2.584,0.388-3.876c0.155-0.826,0.413-1.485,0.775-1.978c0.361-0.49,0.93-0.891,1.705-1.201
		c0.724-0.258,1.447-0.438,2.171-0.543c0.724-0.103,1.446-0.205,2.171-0.31c0.878-0.104,1.783-0.129,2.713-0.078
		c0.93,0.053,1.861,0.078,2.791,0.078h14.729c1.291,0,2.287,0,2.984,0s1.33,0,1.898,0s1.203-0.013,1.9-0.039
		c0.697-0.025,1.691-0.039,2.984-0.039c0.465,0,0.916,0,1.355,0s0.893,0.027,1.357,0.078c0.98,0.052,1.988,0.13,3.023,0.232
		c1.033,0.104,1.988,0.362,2.869,0.775c1.033,0.414,1.73,1.099,2.092,2.054c0.361,0.957,0.568,1.952,0.621,2.985
		c0.104,1.189,0.115,2.364,0.039,3.527c-0.078,1.162-0.117,2.339-0.117,3.526c-0.053,1.035-0.09,2.068-0.115,3.102
		c-0.027,1.034-0.17,2.067-0.428,3.101c-0.154,0.569-0.336,1.073-0.543,1.512c-0.207,0.439-0.619,0.763-1.24,0.969
		c-0.568,0.207-1.162,0.337-1.783,0.388c-0.619,0.053-1.215,0.078-1.781,0.078h-14.574c0.051,0.724,0.09,1.512,0.115,2.364
		s0.039,1.615,0.039,2.287c1.445,0,2.996-0.013,4.65-0.039c1.654-0.025,3.309-0.039,4.963-0.039c1.652,0,3.229,0,4.729,0
		C312.825,333.57,314.118,333.597,315.202,333.648z M315.048,363.494c0.826,0.103,1.551,0.31,2.17,0.62
		c0.621,0.31,1.059,0.878,1.318,1.705c0.621,1.86-0.053,3.179-2.016,3.954c-0.619,0.258-1.24,0.413-1.859,0.465
		c-0.621,0.051-1.215,0.077-1.783,0.077H276.83c-1.035,0-2.107-0.013-3.218-0.038c-1.112-0.027-2.235-0.065-3.372-0.116
		c-1.086-0.053-1.99-0.44-2.713-1.163c-0.725-0.725-1.138-1.68-1.24-2.868l-0.232-5.427c-0.053-0.568-0.053-1.24,0-2.016
		c0.051-0.775,0.31-1.421,0.774-1.938c0.724-0.774,1.692-1.266,2.907-1.473c1.214-0.206,2.391-0.31,3.527-0.31
		c0.723,0,1.925,0,3.605,0c1.678,0,3.965,0.013,6.859,0.038c2.895,0.027,6.474,0.039,10.737,0.039s9.342,0,15.232,0v-2.791h-38.14
		c-0.518,0-0.982,0-1.396,0s-0.826-0.051-1.24-0.154c-0.465-0.104-0.879-0.206-1.24-0.311c-0.361-0.103-0.672-0.361-0.93-0.775
		c-0.725-1.085-0.904-2.196-0.543-3.333c0.155-0.413,0.388-0.736,0.697-0.97c0.311-0.232,0.672-0.426,1.086-0.581
		c0.413-0.155,0.814-0.258,1.201-0.31c0.389-0.052,0.736-0.104,1.047-0.155c0.775-0.155,1.576-0.232,2.403-0.232
		c0.774,0,1.601,0,2.48,0c0.878,0,1.95,0,3.218,0c1.266,0,2.777,0.013,4.535,0.038c1.756,0.027,3.914,0.039,6.473,0.039
		c2.558,0,5.556,0,8.993,0c3.436,0,7.48,0,12.131,0c2.637,0,4.652,0.401,6.047,1.201c1.396,0.803,2.094,2.106,2.094,3.915v5.504
		c0,0.725-0.168,1.435-0.504,2.132c-0.338,0.698-0.918,1.279-1.744,1.745c-0.672,0.414-1.346,0.633-2.016,0.658
		c-0.672,0.027-1.346,0.039-2.016,0.039H275.59v2.791H315.048z M278.07,319.074c0,0.259,0.012,0.504,0.039,0.736
		c0.025,0.232,0.089,0.4,0.193,0.504c0.104,0.104,0.283,0.168,0.543,0.193c0.258,0.027,0.516,0.039,0.775,0.039
		c0.258,0,0.567-0.025,0.93-0.077h20.388c0.723,0.052,1.422,0.104,2.094,0.154c0.568,0.053,1.174,0.078,1.822,0.078
		c0.645,0,1.201-0.051,1.666-0.155c0.568-0.051,0.891-0.194,0.969-0.427s0.168-0.581,0.271-1.046
		c0.051-0.413,0.078-0.892,0.078-1.435s-0.156-1.02-0.465-1.435c-0.363-0.412-0.881-0.632-1.551-0.658
		c-0.672-0.025-1.24-0.013-1.705,0.038h-7.055c-0.156,0-0.775,0-1.861,0s-2.262,0-3.527,0c-1.267,0-2.441,0-3.526,0
		c-1.086,0-1.706,0-1.861,0c-1.085-0.103-2.17-0.142-3.256-0.116c-1.085,0.027-2.197,0.065-3.334,0.116
		c-0.465,0-0.801,0.014-1.008,0.039c-0.207,0.026-0.361,0.271-0.465,0.736c-0.104,0.362-0.154,0.711-0.154,1.047
		c0,0.337,0,0.659,0,0.969V319.074z"/>
</g>
</svg>
