<?xml version="1.0" encoding="utf-8"?>
<!-- Generator: Adobe Illustrator 16.0.0, SVG Export Plug-In . SVG Version: 6.00 Build 0)  -->
<!DOCTYPE svg PUBLIC "-//W3C//DTD SVG 1.1//EN" "http://www.w3.org/Graphics/SVG/1.1/DTD/svg11.dtd">
<svg version="1.1" id="Layer_1" xmlns="http://www.w3.org/2000/svg" xmlns:xlink="http://www.w3.org/1999/xlink" x="0px" y="0px"
	 width="300px" height="300px" viewBox="0 0 300 300" enable-background="new 0 0 300 300" xml:space="preserve">
<g display="none">
	<path display="inline" fill="#FDBF00" d="M176.95,78.691c0,6.754-4.364,12.574-10.392,14.653v6.131c0,2.91-2.287,5.196-5.197,5.196
		c-2.909,0-5.195-2.286-5.195-5.196V89.083c0-2.911,2.286-5.196,5.195-5.196c2.91,0,5.197-2.286,5.197-5.196
		c0-2.911-2.287-5.197-5.197-5.197c-2.909,0-5.195,2.286-5.195,5.197c0,2.91-2.285,5.196-5.195,5.196
		c-2.91,0-5.196-2.286-5.196-5.196c0-8.626,6.961-15.588,15.588-15.588C169.986,63.103,176.95,70.066,176.95,78.691z"/>
	<path display="inline" fill="#FDBF00" d="M193.059,115.271c-0.937,1.871-2.806,2.911-4.677,2.911c-0.831,0-1.559-0.208-2.286-0.52
		l-24.731-12.366l-24.731,12.366c-2.496,1.248-5.612,0.207-6.963-2.391c-1.247-2.494-0.208-5.612,2.39-6.961l27.02-13.51
		c0.727-0.311,1.454-0.52,2.285-0.52c0.83,0,1.559,0.208,2.285,0.52l27.021,13.51C193.268,109.659,194.305,112.776,193.059,115.271z
		"/>
	<path display="inline" fill="#FF9F00" d="M176.95,78.691c0,6.754-4.364,12.574-10.392,14.653v6.131c0,2.91-2.287,5.196-5.197,5.196
		V83.888c2.91,0,5.197-2.285,5.197-5.196c0-2.911-2.287-5.196-5.197-5.196V63.103C169.988,63.103,176.95,70.066,176.95,78.691z"/>
	<path display="inline" fill="#FF9F00" d="M193.059,115.271c-0.937,1.871-2.806,2.911-4.677,2.911c-0.831,0-1.559-0.208-2.286-0.52
		l-24.731-12.366V94.28c0.831,0,1.56,0.208,2.284,0.52l27.021,13.51C193.268,109.659,194.305,112.776,193.059,115.271z"/>
	<path display="inline" fill="#A8D32A" d="M239.648,109.867v41.915c0,2.909-2.287,5.196-5.195,5.196h-15.588v78.285
		c0,2.908-2.286,5.194-5.196,5.194h-47.11l-62.698-62.354v-21.129H88.272c-2.91,0-5.196-2.287-5.196-5.195v-41.914
		c0-2.91,2.286-5.196,5.196-5.196h41.914c2.807,0,5.197,2.286,5.197,5.092c-0.105,14.342,11.639,26.084,25.979,26.084
		c14.344,0,26.084-11.743,25.98-26.084c0-2.806,2.391-5.092,5.196-5.092h41.914C237.361,104.671,239.648,106.957,239.648,109.867z"
		/>
	<path display="inline" fill="#93BF00" d="M239.648,109.867v41.915c0,2.909-2.287,5.196-5.195,5.196h-15.588v78.285
		c0,2.908-2.286,5.194-5.196,5.194h-47.11l-5.195-5.194v-99.417c14.342,0,26.084-11.743,25.979-26.084
		c0-2.806,2.392-5.092,5.197-5.092h41.914C237.361,104.671,239.648,106.957,239.648,109.867z"/>
	<path display="inline" fill="#FFCEBF" d="M176.95,230.066c0,5.718-4.677,10.394-10.392,10.394H72.685
		c-5.716,0-10.392-4.676-10.392-10.394c0-5.715,4.676-10.393,10.392-10.393l47.111-10.393l46.765,10.393
		C172.273,219.676,176.95,224.352,176.95,230.066z"/>
	<path display="inline" fill="#FFBFAB" d="M176.95,230.066c0,5.718-4.677,10.394-10.392,10.394h-46.766v-31.177l46.766,10.394
		C172.273,219.676,176.95,224.352,176.95,230.066z"/>
	<path display="inline" fill="#FFA78F" d="M176.95,209.283c0,5.716-4.677,10.393-10.392,10.393H72.685
		c-5.716,0-10.392-4.677-10.392-10.393c0-5.715,4.676-10.393,10.392-10.393l47.111-10.393l46.765,10.393
		C172.273,198.893,176.95,203.568,176.95,209.283z"/>
	<path display="inline" fill="#F89580" d="M176.95,209.283c0,5.716-4.677,10.393-10.392,10.393h-46.766V188.5l46.766,10.393
		C172.273,198.893,176.95,203.568,176.95,209.283z"/>
	<path display="inline" fill="#FFCEBF" d="M176.95,188.5c0,5.715-4.677,10.393-10.392,10.393H72.685
		c-5.716,0-10.392-4.678-10.392-10.393c0-5.716,4.676-10.393,10.392-10.393h93.875C172.273,178.107,176.95,182.784,176.95,188.5z"/>
	<path display="inline" fill="#FFBFAB" d="M176.95,188.5c0,5.715-4.677,10.393-10.392,10.393h-46.766v-20.785h46.766
		C172.273,178.107,176.95,182.784,176.95,188.5z"/>
</g>
<g display="none">
	<path display="inline" fill="#436B1C" d="M105.839,134.116c-0.942,0-1.864-0.459-2.396-1.293c-1.727-2.706-4.952-5.834-8.655-5.72
		c-1.575-0.082-2.851-1.136-2.896-2.634c-0.049-1.503,1.172-2.757,2.725-2.803c5.925-0.171,10.978,4.17,13.613,8.305
		c0.815,1.278,0.404,2.953-0.917,3.741C106.854,133.984,106.342,134.116,105.839,134.116z"/>
	<g display="inline">
		<path fill="#88C057" d="M163.395,97.916c-0.379-5.296-4.932-9.482-10.504-9.482c-0.017,0-0.031,0.003-0.048,0.003
			c0.099-0.803,0.042-1.65-0.226-2.534c-0.754-2.485-3.015-4.393-5.674-4.7c-2.182-0.251-4.185,0.504-5.588,1.845
			c-1.335-1.166-3.085-1.895-5.024-1.895c-4.16,0-7.528,3.26-7.528,7.278c0,0.013,0.004,0.024,0.004,0.038
			c-5.054,0.37-9.039,4.445-9.039,9.425c0,0.761,0.103,1.498,0.278,2.208c-6.015,0.241-10.817,5.021-10.817,10.895
			c0,1.99,0.56,3.85,1.522,5.456c-1.848,1.468-3.029,3.694-3.029,6.188c0,2.278,0.998,4.319,2.579,5.775
			c6.782-5.359,13.908,12.562,22.299,26.87c2.787,4.751,32.895-0.31,35.292,2.641c2.733-2.375,4.5-43.75,4.574-47.385
			C172.586,104.709,168.756,99.735,163.395,97.916z"/>
	</g>
	<path display="inline" fill="#EEAF4B" d="M167.243,152.111l2.005-1.161c3.712-2.153,8.348-2.153,12.057,0l2.004,1.161
		c3.713,2.154,8.346,2.154,12.056,0l5.665-2.437c0.832-2.246,1.412-3.872,1.644-4.593c5.288-16.438,8.691-33.747,9.156-51.012
		c0.187-6.943-5.753-17.771-15.621-12.851c-9.699,4.833-16.646,23.371-21.524,32.173c-6.937,12.508-12.416,26.112-16.324,39.974
		C161.332,154.094,164.532,153.684,167.243,152.111z"/>
	<path display="inline" fill="#ED3F32" d="M94.135,149.32l3.783,2.194c4.345,2.521,9.771,2.521,14.116,0l0.973-0.563
		c3.712-2.153,8.346-2.153,12.056,0l2.005,1.159c2.18,1.267,4.677,1.766,7.118,1.546c1.799-5.618,1.195-12.644-1.595-17.398
		c-9.381-15.998-17.185-12.739-24.693-5.793c-1.439,1.333-3.199,2.308-5.118,2.839c-8.233,2.275-14.31,5.997-10.854,16.131
		C92.535,149.002,93.386,148.885,94.135,149.32z"/>
	<path display="inline" fill="#A46F3E" d="M174.382,146.194c-0.297,0-0.604-0.046-0.901-0.144c-1.472-0.483-2.258-2.027-1.758-3.449
		c1.875-5.334,7.898-8.189,13.408-6.395c2.584,0.852,5.398-0.492,6.275-2.99c0.498-1.421,2.09-2.188,3.568-1.702
		c1.473,0.484,2.26,2.029,1.758,3.449c-1.873,5.337-7.892,8.202-13.406,6.395c-2.582-0.848-5.396,0.498-6.277,2.991
		C176.646,145.484,175.553,146.194,174.382,146.194z"/>
	<path display="inline" fill="#A46F3E" d="M181.032,127.254c-0.298,0-0.604-0.046-0.901-0.144c-1.471-0.484-2.258-2.028-1.759-3.45
		c0.907-2.585,2.805-4.675,5.336-5.883c2.53-1.207,5.396-1.388,8.073-0.511c2.589,0.854,5.398-0.493,6.275-2.993
		c0.498-1.424,2.096-2.188,3.564-1.703c1.471,0.485,2.258,2.03,1.758,3.451c-1.873,5.339-7.893,8.199-13.406,6.396
		c-1.252-0.413-2.597-0.329-3.779,0.237c-1.186,0.565-2.07,1.541-2.498,2.753C183.3,126.542,182.205,127.254,181.032,127.254z"/>
	<path display="inline" fill="#A46F3E" d="M187.688,108.311c-0.299,0-0.604-0.046-0.905-0.144c-1.472-0.484-2.259-2.027-1.759-3.449
		c1.645-4.682,6.928-7.194,11.77-5.611c0.93,0.304,1.919,0.245,2.793-0.171s1.527-1.139,1.846-2.034
		c0.495-1.422,2.092-2.185,3.566-1.702c1.473,0.483,2.259,2.028,1.759,3.449c-0.799,2.27-2.461,4.105-4.682,5.163
		c-2.226,1.06-4.742,1.215-7.091,0.446c-1.905-0.627-3.986,0.364-4.635,2.21C189.951,107.6,188.855,108.311,187.688,108.311z"/>
	<g display="inline">
		<path fill="#DAE7EF" d="M140.014,118.299c-2.657,3.417-6.85,7.462-5.236,14.607l4.342,19.205h0.003l2.005-1.161
			c3.712-2.153,8.346-2.153,12.056,0l2.004,1.161c1.631,0.947,3.17,1.259,3.17,1.259c2.932-10.393,6.746-20.641,11.395-30.39
			c-2.176-5.263-6.822-7.023-10.197-8.827c-0.021-0.01-0.039-0.021-0.058-0.029c-2.136-1.184-2.269-4.007-0.659-5.807
			c0.631-0.71,0.926-1.685,0.705-2.665l-0.341-1.5c-0.374-1.653-2.078-2.708-3.786-2.346l-17.087,3.605
			c-1.71,0.362-2.801,2.009-2.427,3.659l0.34,1.5c0.225,1.001,0.94,1.775,1.845,2.154c2.078,0.868,3.347,3.11,2.284,5.043
			C140.267,117.949,140.149,118.125,140.014,118.299z"/>
	</g>
	<path display="inline" fill="#FFFFFF" d="M157.943,109.611l-19.344,4.085c-2.135,0.451-4.267-0.87-4.733-2.934l-0.279-1.229
		c-0.466-2.063,0.901-4.124,3.036-4.575l19.343-4.086c2.136-0.451,4.267,0.87,4.731,2.935l0.279,1.228
		C161.443,107.102,160.078,109.16,157.943,109.611z"/>
	<path display="inline" fill="#FBD490" d="M205.945,148.847l-4.907,68.042c-0.358,6.795-6.162,12.121-13.197,12.121h-78.936
		c-7.036,0-12.837-5.326-13.198-12.121l-4.789-65.81c-0.081-1.547,1.653-2.556,3.029-1.759l3.783,2.194
		c4.344,2.521,9.771,2.521,14.117,0l0.971-0.563c3.712-2.153,8.347-2.153,12.055,0l2.006,1.161c3.713,2.154,8.346,2.154,12.054,0
		l2.006-1.161c3.712-2.153,8.346-2.153,12.056,0l2.005,1.161c3.712,2.154,8.346,2.154,12.057,0l2.004-1.161
		c3.711-2.153,8.347-2.153,12.056,0l2.005,1.161c3.712,2.154,8.346,2.154,12.055,0l9.524-4.089
		C205.305,147.76,205.979,148.208,205.945,148.847z"/>
	<path display="inline" fill="#E0B877" d="M124.66,194.158h-19.685c-1.553,0-2.812-1.215-2.812-2.719s1.259-2.719,2.812-2.719
		h19.685c1.552,0,2.811,1.215,2.811,2.719S126.212,194.158,124.66,194.158z"/>
	<path display="inline" fill="#E0B877" d="M130.284,205.033h-25.307c-1.552,0-2.813-1.215-2.813-2.719s1.261-2.719,2.813-2.719
		h25.307c1.553,0,2.812,1.215,2.812,2.719S131.836,205.033,130.284,205.033z"/>
	<path display="inline" fill="#E0B877" d="M135.908,215.907h-30.932c-1.552,0-2.813-1.218-2.813-2.72c0-1.504,1.261-2.72,2.813-2.72
		h30.932c1.552,0,2.812,1.216,2.812,2.72C138.72,214.689,137.46,215.907,135.908,215.907z"/>
	<path display="inline" fill="#E0B877" d="M152.779,215.907h-5.622c-1.552,0-2.813-1.218-2.813-2.72c0-1.504,1.26-2.72,2.813-2.72
		h5.622c1.554,0,2.813,1.216,2.813,2.72C155.593,214.689,154.333,215.907,152.779,215.907z"/>
</g>
<g display="none">
	<rect x="182.115" y="80.531" display="inline" fill="#695A69" width="13.334" height="13.335"/>
	<path display="inline" fill="#F2D057" d="M70.992,142.76v71.119h62.228v-53.34h35.561v53.34h62.229V142.76H151H70.992z
		 M119.885,160.539v8.891v4.445v17.779v4.445h-4.444H93.214H88.77v-4.445v-17.779v-4.445v-8.891v-4.443h4.446h22.225h4.444V160.539
		L119.885,160.539z M182.115,191.654v-17.779v-4.445v-8.891v-4.443h4.443h22.228h4.444v4.443v8.891v4.445v17.779v4.445h-4.444
		h-22.226h-4.444L182.115,191.654L182.115,191.654z"/>
	<polygon display="inline" fill="#BF515A" points="213.229,93.866 195.449,93.866 182.115,93.866 151,93.866 88.771,93.866 
		66.546,142.76 70.992,142.76 151,142.76 231.009,142.76 235.454,142.76 	"/>
	<polygon display="inline" fill="#95FFFF" points="93.214,191.654 110.995,191.654 93.214,173.875 	"/>
	<polygon display="inline" fill="#80D7F0" points="110.995,191.654 115.44,191.654 115.44,173.875 93.214,173.875 	"/>
	<rect x="93.214" y="160.539" display="inline" fill="#6EB1E2" width="22.227" height="8.891"/>
	<path display="inline" fill="#695A69" d="M93.214,156.096h-4.443v4.443v8.891v4.445v17.779v4.445h4.444h22.226h4.444v-4.445
		v-17.779v-4.445v-8.891v-4.443h-4.444H93.214z M115.44,191.654h-4.446h-17.78v-17.779h22.226V191.654L115.44,191.654z
		 M115.44,169.43H93.214v-8.891h22.226V169.43L115.44,169.43z"/>
	<polygon display="inline" fill="#95FFFF" points="186.561,173.875 186.561,191.654 204.34,191.654 	"/>
	<polygon display="inline" fill="#80D7F0" points="208.786,191.654 208.786,173.875 186.561,173.875 204.34,191.654 	"/>
	<rect x="186.561" y="160.539" display="inline" fill="#6EB1E2" width="22.228" height="8.891"/>
	<path display="inline" fill="#695A69" d="M208.786,196.1h4.444v-4.445v-17.777v-4.443v-8.893V156.1h-4.444h-22.226h-4.444v4.441
		v8.893v4.443v17.777v4.445h4.444H208.786L208.786,196.1z M186.561,160.539h22.228v8.891h-22.228V160.539L186.561,160.539z
		 M186.561,173.875h22.228v17.779h-4.446h-17.779v-17.779H186.561z"/>
	<polygon display="inline" fill="#944851" points="168.779,160.539 133.22,160.539 133.22,213.879 133.22,231.658 168.779,231.658 
		168.779,213.879 	"/>
	<rect x="70.992" y="213.879" display="inline" fill="#E9A868" width="62.228" height="17.779"/>
	<rect x="168.779" y="213.879" display="inline" fill="#E9A868" width="62.229" height="17.779"/>
</g>
<g>
	<path fill="#53433F" d="M203.606,226.437c-20.689,0-37.523-16.835-37.523-37.523s16.834-37.522,37.523-37.522
		c20.687,0,37.881,16.835,37.881,37.522C241.487,209.602,224.294,226.437,203.606,226.437z M203.606,162.111
		c-14.778,0-26.805,12.024-26.805,26.802s12.026,26.803,26.805,26.803c14.776,0,27.159-12.025,27.159-26.803
		S218.383,162.111,203.606,162.111z"/>
	<path fill="#68544F" d="M96.395,226.437c-20.689,0-37.881-16.835-37.881-37.523s17.192-37.522,37.881-37.522
		c15.877,0,30.101,10.051,35.389,25.017l-10.115,3.57c-3.774-10.684-13.931-17.867-25.274-17.867
		c-14.778,0-27.161,12.024-27.161,26.803c0,14.776,12.383,26.803,27.161,26.803c11.343,0,21.5-7.181,25.274-17.866l10.115,3.569
		C126.496,216.386,112.273,226.437,96.395,226.437z"/>
	<path fill="#53433F" d="M182.163,97.784l2.574,42.884h8.147c14.794,0,26.802-12.009,26.802-26.804V97.784H182.163L182.163,97.784z"
		/>
	<path fill="#FF637B" d="M204.57,177.012l-9.971,3.969l-13.831-35.38l-30.556,38.273L150,183.66l-8.256-6.434L150,166.934
		l21.014-26.266h-49.533l-15.866,39.559l-9.865-4.073l16.726-41.918v-20.37h10.721v16.082h53.605V81.703l10.722,5.36v47.173
		L204.57,177.012z"/>
	<path fill="#E63950" d="M204.57,177.012l-9.971,3.969l-13.831-35.38l-30.556,38.273L150,183.66v-16.727l21.014-26.266H150v-10.722
		h26.803V81.701l10.722,5.36v47.173L204.57,177.012z"/>
	<path fill="#D3D3D8" d="M150,177.012c-2.789-2.575-6.54-4.18-10.72-4.18H96.396c-8.9,0-16.439,7.182-16.439,16.081
		c0,8.897,7.54,16.083,16.439,16.083h42.884c4.181,0,7.933-1.608,10.72-4.182c3.323-2.895,5.361-7.183,5.361-11.901
		C155.361,184.195,153.323,179.908,150,177.012z"/>
	<path fill="#BABAC0" d="M155.361,188.913c0,4.716-2.04,9.007-5.361,11.901v-23.803
		C153.323,179.908,155.361,184.198,155.361,188.913z"/>
	<path fill="#BABAC0" d="M203.606,204.994c-8.868,0-16.084-7.216-16.084-16.082c0-8.868,7.217-16.082,16.084-16.082
		c8.865,0,16.08,7.214,16.08,16.082C219.687,197.779,212.472,204.994,203.606,204.994z"/>
	<path fill="#53433F" d="M187.522,76.342h-32.161v10.72h32.161V76.342z"/>
	<path fill="#68544F" d="M101.754,108.506h32.165v10.72h-32.165V108.506z"/>
</g>
<circle display="none" fill="#FFFFFF" cx="151.143" cy="151.1" r="96.834"/>
<g display="none">
	<path display="inline" d="M142.156,160.751c0.025,0.151,0.044,0.298,0.058,0.437c0.012,0.141,0.019,0.299,0.019,0.478
		c0,0.304-0.089,0.583-0.266,0.836c-0.076,0.126-0.178,0.247-0.305,0.358c-0.127,0.115-0.278,0.209-0.456,0.285
		c-0.633,0.355-1.305,0.481-2.014,0.381c-0.355-0.102-0.672-0.267-0.95-0.492c-0.051-0.053-0.089-0.083-0.113-0.098
		c-0.026-0.013-0.052-0.043-0.076-0.095c-0.025-0.024-0.052-0.058-0.076-0.095c-0.025-0.038-0.063-0.07-0.114-0.096
		c-0.127-0.127-0.228-0.246-0.304-0.36c-0.076-0.114-0.152-0.235-0.229-0.36c-0.051-0.128-0.107-0.248-0.171-0.361
		c-0.063-0.112-0.133-0.232-0.209-0.359c-0.051-0.104-0.102-0.195-0.151-0.285c-0.052-0.089-0.09-0.184-0.114-0.283
		c-0.102-0.229-0.165-0.433-0.19-0.607l-0.798-1.862c-1.748,0-3.49,0.007-5.225,0.019c-1.735,0.016-3.478,0.009-5.226-0.019
		l-0.798,1.862c-0.051,0.101-0.082,0.201-0.095,0.304c-0.013,0.101-0.045,0.202-0.095,0.304c-0.052,0.104-0.096,0.196-0.134,0.285
		c-0.037,0.088-0.082,0.184-0.133,0.285c-0.076,0.127-0.146,0.247-0.209,0.361c-0.063,0.113-0.133,0.232-0.209,0.359
		c-0.051,0.127-0.114,0.246-0.189,0.36c-0.076,0.114-0.178,0.231-0.305,0.358c-0.051,0.025-0.089,0.06-0.113,0.098
		c-0.026,0.037-0.052,0.068-0.076,0.095c-0.025,0.052-0.051,0.082-0.076,0.097c-0.025,0.013-0.063,0.045-0.114,0.096
		c-0.279,0.229-0.596,0.393-0.95,0.494c-0.709,0.101-1.381-0.025-2.014-0.381c-0.178-0.076-0.329-0.17-0.456-0.285
		c-0.127-0.113-0.228-0.234-0.304-0.36c-0.178-0.253-0.267-0.532-0.267-0.836c0-0.179,0.007-0.337,0.02-0.476
		c0.013-0.141,0.031-0.285,0.057-0.438c0.051-0.229,0.114-0.456,0.19-0.687l0.114-0.342l7.903-19.456l0.229-0.608
		c0.05-0.152,0.114-0.291,0.189-0.418c0.076-0.126,0.14-0.278,0.19-0.456c0.126-0.329,0.266-0.621,0.418-0.874
		c0.076-0.152,0.164-0.291,0.266-0.418c0.102-0.126,0.203-0.253,0.305-0.38c0.151-0.202,0.366-0.367,0.646-0.494
		c0.354-0.126,0.766-0.19,1.235-0.19c0.468,0,0.88,0.064,1.234,0.19c0.279,0.127,0.494,0.292,0.646,0.494
		c0.177,0.228,0.367,0.494,0.57,0.798c0.151,0.253,0.29,0.545,0.418,0.874c0.05,0.177,0.113,0.329,0.189,0.456
		c0.076,0.127,0.139,0.266,0.19,0.418l0.228,0.608l7.904,19.456l0.114,0.342C142.042,160.295,142.105,160.523,142.156,160.751z
		 M133.15,151.441c-0.329-0.735-0.665-1.497-1.007-2.28c-0.342-0.785-0.703-1.583-1.083-2.394c-0.102-0.228-0.203-0.462-0.304-0.703
		c-0.102-0.241-0.203-0.475-0.305-0.703c-0.076,0.228-0.165,0.462-0.266,0.703c-0.102,0.241-0.203,0.475-0.304,0.703
		c-0.381,0.811-0.741,1.609-1.083,2.394c-0.343,0.785-0.679,1.545-1.008,2.28l-0.684,1.672h6.726L133.15,151.441z"/>
	<path display="inline" d="M162.828,160.447c0.051,0.126,0.076,0.31,0.076,0.551c0,0.24,0,0.438,0,0.589
		c0,0.202-0.039,0.394-0.115,0.569c-0.076,0.178-0.178,0.343-0.303,0.494c-0.229,0.305-0.561,0.533-0.988,0.685
		c-0.609,0.202-1.178,0.304-1.711,0.304c-0.279,0.025-0.57,0.038-0.873,0.038c-0.305,0-0.609,0.024-0.912,0.076h-0.152
		c-1.951,0.024-3.965,0.024-6.043,0c-0.506-0.024-1.076-0.019-1.708,0.019c-0.633,0.039-1.254,0.025-1.861-0.037
		c-0.608-0.063-1.159-0.215-1.653-0.457c-0.494-0.238-0.843-0.627-1.045-1.156c-0.051-0.127-0.089-0.247-0.114-0.361
		c-0.025-0.111-0.038-0.232-0.038-0.359c-0.102-0.861-0.14-1.709-0.114-2.545s0.038-1.66,0.038-2.473l0.076-5.51v-5.092
		c0-0.912,0.006-1.722,0.02-2.432c0.012-0.708,0.031-1.494,0.057-2.356v-0.19c0.025-0.253,0.044-0.506,0.057-0.76
		c0.013-0.253,0.02-0.506,0.02-0.76c0.051-0.583,0.189-1.076,0.418-1.482c0.152-0.38,0.418-0.684,0.798-0.912
		c0.329-0.228,0.722-0.342,1.178-0.342c0.178,0,0.349,0.006,0.514,0.019c0.164,0.013,0.322,0.032,0.475,0.057
		c0.152,0.025,0.298,0.076,0.438,0.152c0.139,0.076,0.284,0.177,0.437,0.304c0.152,0.178,0.291,0.393,0.418,0.646
		c0.101,0.279,0.164,0.558,0.19,0.836c0.024,0.177,0.05,0.342,0.075,0.494c0.025,0.152,0.039,0.304,0.039,0.456
		c-0.05,0.152-0.075,0.304-0.075,0.456c0,0.152,0,0.292,0,0.418v0.684l-0.152,17.898l7.522,0.076h1.787
		c0.151,0,0.315,0.006,0.494,0.021c0.176,0.012,0.354,0.029,0.53,0.057c0.203,0.025,0.382,0.051,0.533,0.076
		c0.149,0.025,0.303,0.063,0.455,0.113c0.278,0.074,0.506,0.203,0.685,0.381C162.574,159.939,162.752,160.193,162.828,160.447z"/>
	<path display="inline" d="M183.5,160.447c0.051,0.126,0.076,0.31,0.076,0.551c0,0.24,0,0.438,0,0.589
		c0,0.202-0.039,0.394-0.115,0.569c-0.076,0.178-0.178,0.343-0.303,0.494c-0.229,0.305-0.559,0.533-0.988,0.685
		c-0.609,0.202-1.178,0.304-1.711,0.304c-0.279,0.025-0.57,0.038-0.873,0.038c-0.305,0-0.609,0.024-0.912,0.076h-0.152
		c-1.951,0.024-3.965,0.024-6.043,0c-0.506-0.024-1.076-0.019-1.709,0.019c-0.633,0.039-1.254,0.025-1.859-0.037
		c-0.609-0.063-1.16-0.215-1.654-0.457c-0.492-0.238-0.842-0.627-1.045-1.156c-0.051-0.127-0.088-0.247-0.111-0.361
		c-0.025-0.111-0.039-0.232-0.039-0.359c-0.104-0.861-0.141-1.709-0.113-2.545c0.025-0.836,0.037-1.66,0.037-2.473l0.076-5.51
		v-5.092c0-0.912,0.006-1.722,0.02-2.432c0.012-0.708,0.031-1.494,0.057-2.356v-0.19c0.025-0.253,0.045-0.506,0.057-0.76
		c0.016-0.253,0.021-0.506,0.021-0.76c0.053-0.583,0.188-1.076,0.418-1.482c0.152-0.38,0.418-0.684,0.801-0.912
		c0.326-0.228,0.721-0.342,1.178-0.342c0.178,0,0.348,0.006,0.514,0.019c0.164,0.013,0.322,0.032,0.475,0.057
		c0.153,0.025,0.297,0.076,0.438,0.152c0.14,0.076,0.282,0.177,0.437,0.304c0.151,0.178,0.291,0.393,0.418,0.646
		c0.103,0.279,0.164,0.558,0.19,0.836c0.022,0.177,0.049,0.342,0.073,0.494c0.025,0.152,0.039,0.304,0.039,0.456
		c-0.051,0.152-0.075,0.304-0.075,0.456c0,0.152,0,0.292,0,0.418v0.684l-0.151,17.898l7.521,0.076h1.787
		c0.152,0,0.316,0.006,0.494,0.021c0.176,0.012,0.354,0.029,0.531,0.057c0.202,0.025,0.381,0.051,0.532,0.076
		c0.149,0.025,0.304,0.063,0.455,0.113c0.278,0.074,0.506,0.203,0.685,0.381C183.246,159.939,183.424,160.193,183.5,160.447z"/>
</g>
</svg>
