<?xml version="1.0" encoding="utf-8"?>
<!-- Generator: Adobe Illustrator 16.0.0, SVG Export Plug-In . SVG Version: 6.00 Build 0)  -->
<!DOCTYPE svg PUBLIC "-//W3C//DTD SVG 1.1//EN" "http://www.w3.org/Graphics/SVG/1.1/DTD/svg11.dtd">
<svg version="1.1" id="Capa_1" xmlns="http://www.w3.org/2000/svg" xmlns:xlink="http://www.w3.org/1999/xlink" x="0px" y="0px"
	 width="97px" height="96.5px" viewBox="285 165.5 97 96.5" enable-background="new 285 165.5 97 96.5" xml:space="preserve">
<circle fill="#E85D5D" cx="333.836" cy="212.75" r="41.75"/>
<g>
	<path fill="#FFFFFF" d="M347.654,196.863c0.156,0.722,0.18,1.45,0.07,2.186c-0.11,0.736-0.258,1.403-0.447,1.998
		c-0.375,1.222-0.814,2.585-1.315,4.089s-1.003,3.008-1.504,4.513c-0.501,1.504-0.987,2.922-1.457,4.253
		c-0.47,1.332-0.862,2.437-1.175,3.313c-0.313,0.814-0.643,1.738-0.987,2.773c-0.345,1.033-0.76,2.044-1.245,3.031
		c-0.486,0.986-1.051,1.887-1.692,2.702c-0.643,0.814-1.418,1.41-2.326,1.786c-0.909,0.376-1.739,0.462-2.491,0.258
		c-0.752-0.203-1.426-0.58-2.021-1.127c-0.596-0.549-1.136-1.238-1.621-2.068c-0.486-0.83-0.916-1.684-1.293-2.562
		c-0.375-0.877-0.721-1.731-1.033-2.562c-0.314-0.83-0.596-1.543-0.846-2.139c-0.973-2.131-1.85-4.387-2.633-6.768
		s-1.582-4.653-2.396-6.815c-0.22-0.626-0.471-1.386-0.752-2.279c-0.282-0.894-0.463-1.786-0.541-2.679s0.023-1.707,0.306-2.444
		c0.282-0.735,0.877-1.245,1.786-1.527c0.188-0.063,0.383-0.118,0.588-0.165c0.203-0.047,0.398-0.086,0.587-0.117
		c0.22,0,0.423,0.016,0.611,0.047s0.392,0.11,0.61,0.235c0.156,0.063,0.313,0.134,0.471,0.212c0.156,0.078,0.297,0.18,0.423,0.305
		c0.125,0.157,0.242,0.314,0.353,0.471c0.109,0.156,0.227,0.313,0.353,0.47c0.094,0.22,0.18,0.415,0.259,0.587
		c0.078,0.173,0.148,0.338,0.211,0.494c0.063,0.219,0.141,0.416,0.235,0.588c0.094,0.172,0.172,0.336,0.235,0.493l0.281,0.799
		l6.768,19.317l6.675-19.271l0.329-0.799c0.063-0.157,0.125-0.321,0.188-0.493s0.125-0.368,0.188-0.588
		c0.063-0.156,0.134-0.32,0.213-0.494c0.077-0.172,0.18-0.352,0.305-0.54c0.094-0.156,0.195-0.321,0.306-0.493
		c0.109-0.172,0.228-0.336,0.353-0.494c0.094-0.125,0.211-0.234,0.353-0.328s0.274-0.172,0.399-0.235
		c0.25-0.125,0.478-0.204,0.682-0.235c0.203-0.031,0.383-0.047,0.541-0.047c0.188,0.031,0.383,0.07,0.587,0.117
		c0.203,0.047,0.399,0.103,0.587,0.165c0.596,0.157,1.042,0.423,1.34,0.799C347.363,195.971,347.561,196.394,347.654,196.863z"/>
</g>
</svg>
