<?xml version="1.0" encoding="utf-8"?>
<!-- Generator: Adobe Illustrator 16.0.0, SVG Export Plug-In . SVG Version: 6.00 Build 0)  -->
<!DOCTYPE svg PUBLIC "-//W3C//DTD SVG 1.1//EN" "http://www.w3.org/Graphics/SVG/1.1/DTD/svg11.dtd">
<svg version="1.1" id="Layer_1" xmlns="http://www.w3.org/2000/svg" xmlns:xlink="http://www.w3.org/1999/xlink" x="0px" y="0px"
	 width="300px" height="300px" viewBox="0 0 300 300" enable-background="new 0 0 300 300" xml:space="preserve">
<circle fill="#C5D9EC" cx="150" cy="149.5" r="142.166"/>
<g display="none">
	<path display="inline" fill="#FDBF00" d="M176.95,78.691c0,6.754-4.364,12.574-10.392,14.653v6.131c0,2.91-2.287,5.196-5.197,5.196
		c-2.909,0-5.195-2.286-5.195-5.196V89.083c0-2.911,2.286-5.196,5.195-5.196c2.91,0,5.197-2.286,5.197-5.196
		c0-2.911-2.287-5.197-5.197-5.197c-2.909,0-5.195,2.286-5.195,5.197c0,2.91-2.285,5.196-5.195,5.196
		c-2.91,0-5.196-2.286-5.196-5.196c0-8.626,6.961-15.588,15.588-15.588C169.986,63.103,176.95,70.066,176.95,78.691z"/>
	<path display="inline" fill="#FDBF00" d="M193.059,115.271c-0.937,1.871-2.806,2.911-4.677,2.911c-0.831,0-1.559-0.208-2.286-0.52
		l-24.732-12.366l-24.731,12.366c-2.496,1.248-5.612,0.207-6.963-2.391c-1.247-2.494-0.208-5.612,2.39-6.961L159.08,94.8
		c0.727-0.311,1.454-0.52,2.285-0.52c0.83,0,1.559,0.208,2.285,0.52l27.021,13.51C193.268,109.659,194.305,112.776,193.059,115.271z
		"/>
	<path display="inline" fill="#FF9F00" d="M176.95,78.691c0,6.754-4.364,12.574-10.392,14.653v6.131c0,2.91-2.287,5.196-5.197,5.196
		V83.888c2.91,0,5.197-2.285,5.197-5.196c0-2.911-2.287-5.196-5.197-5.196V63.103C169.988,63.103,176.95,70.066,176.95,78.691z"/>
	<path display="inline" fill="#FF9F00" d="M193.059,115.271c-0.937,1.871-2.806,2.911-4.677,2.911c-0.831,0-1.559-0.208-2.286-0.52
		l-24.732-12.366V94.28c0.832,0,1.56,0.208,2.285,0.52l27.021,13.51C193.268,109.659,194.305,112.776,193.059,115.271z"/>
	<path display="inline" fill="#A8D32A" d="M239.648,109.867v41.915c0,2.909-2.287,5.196-5.195,5.196h-15.588v78.285
		c0,2.909-2.286,5.195-5.196,5.195h-47.11l-62.698-62.354v-21.129H88.272c-2.91,0-5.196-2.287-5.196-5.195v-41.915
		c0-2.91,2.286-5.196,5.196-5.196h41.914c2.807,0,5.197,2.286,5.197,5.092c-0.105,14.342,11.639,26.084,25.979,26.084
		c14.343,0,26.084-11.743,25.98-26.084c0-2.806,2.391-5.092,5.196-5.092h41.914C237.361,104.671,239.648,106.957,239.648,109.867z"
		/>
	<path display="inline" fill="#93BF00" d="M239.648,109.867v41.915c0,2.909-2.287,5.196-5.195,5.196h-15.588v78.285
		c0,2.909-2.286,5.195-5.196,5.195h-47.11l-5.195-5.195v-99.417c14.341,0,26.084-11.743,25.979-26.084
		c0-2.806,2.391-5.092,5.197-5.092h41.914C237.361,104.671,239.648,106.957,239.648,109.867z"/>
	<path display="inline" fill="#FFCEBF" d="M176.95,230.066c0,5.718-4.677,10.394-10.392,10.394H72.685
		c-5.716,0-10.392-4.676-10.392-10.394c0-5.715,4.676-10.392,10.392-10.392l47.111-10.393l46.765,10.393
		C172.273,219.676,176.95,224.352,176.95,230.066z"/>
	<path display="inline" fill="#FFBFAB" d="M176.95,230.066c0,5.718-4.677,10.394-10.392,10.394h-46.765v-31.177l46.765,10.394
		C172.273,219.676,176.95,224.352,176.95,230.066z"/>
	<path display="inline" fill="#FFA78F" d="M176.95,209.283c0,5.716-4.677,10.393-10.392,10.393H72.685
		c-5.716,0-10.392-4.677-10.392-10.393c0-5.715,4.676-10.393,10.392-10.393l47.111-10.392l46.765,10.392
		C172.273,198.893,176.95,203.568,176.95,209.283z"/>
	<path display="inline" fill="#F89580" d="M176.95,209.283c0,5.716-4.677,10.393-10.392,10.393h-46.765V188.5l46.765,10.393
		C172.273,198.893,176.95,203.568,176.95,209.283z"/>
	<path display="inline" fill="#FFCEBF" d="M176.95,188.5c0,5.715-4.677,10.393-10.392,10.393H72.685
		c-5.716,0-10.392-4.678-10.392-10.393c0-5.716,4.676-10.393,10.392-10.393h93.875C172.273,178.107,176.95,182.784,176.95,188.5z"/>
	<path display="inline" fill="#FFBFAB" d="M176.95,188.5c0,5.715-4.677,10.393-10.392,10.393h-46.765v-20.785h46.765
		C172.273,178.107,176.95,182.784,176.95,188.5z"/>
</g>
<g display="none">
	<path display="inline" fill="#436B1C" d="M105.839,134.116c-0.942,0-1.864-0.459-2.396-1.293c-1.727-2.706-4.952-5.834-8.655-5.72
		c-1.575-0.082-2.851-1.136-2.896-2.634c-0.049-1.503,1.172-2.757,2.725-2.803c5.925-0.171,10.978,4.17,13.613,8.305
		c0.815,1.278,0.404,2.953-0.917,3.741C106.854,133.984,106.342,134.116,105.839,134.116z"/>
	<g display="inline">
		<path fill="#88C057" d="M163.395,97.916c-0.379-5.296-4.932-9.482-10.504-9.482c-0.017,0-0.031,0.003-0.048,0.003
			c0.099-0.803,0.042-1.65-0.226-2.534c-0.754-2.485-3.015-4.393-5.674-4.7c-2.182-0.251-4.185,0.504-5.588,1.845
			c-1.335-1.166-3.085-1.895-5.024-1.895c-4.16,0-7.528,3.26-7.528,7.278c0,0.013,0.004,0.024,0.004,0.038
			c-5.054,0.37-9.039,4.445-9.039,9.425c0,0.761,0.103,1.498,0.278,2.208c-6.015,0.241-10.817,5.021-10.817,10.895
			c0,1.99,0.56,3.85,1.522,5.456c-1.848,1.468-3.029,3.694-3.029,6.188c0,2.278,0.998,4.319,2.579,5.775
			c6.782-5.359,13.908,12.562,22.299,26.87c2.787,4.751,32.895-0.31,35.292,2.641c2.734-2.375,4.5-43.75,4.575-47.385
			C172.586,104.709,168.756,99.735,163.395,97.916z"/>
	</g>
	<path display="inline" fill="#EEAF4B" d="M167.243,152.111l2.005-1.161c3.712-2.153,8.348-2.153,12.057,0l2.004,1.161
		c3.713,2.154,8.346,2.154,12.055,0l5.666-2.436c0.832-2.246,1.412-3.872,1.643-4.593c5.288-16.438,8.691-33.747,9.156-51.012
		c0.186-6.943-5.753-17.771-15.621-12.851c-9.699,4.833-16.645,23.371-21.525,32.173c-6.936,12.508-12.416,26.112-16.324,39.974
		C161.332,154.094,164.532,153.684,167.243,152.111z"/>
	<path display="inline" fill="#ED3F32" d="M94.135,149.32l3.783,2.194c4.345,2.521,9.771,2.521,14.116,0l0.973-0.564
		c3.712-2.153,8.346-2.153,12.056,0l2.005,1.16c2.18,1.266,4.677,1.765,7.118,1.545c1.799-5.618,1.195-12.644-1.595-17.398
		c-9.381-15.998-17.185-12.739-24.693-5.793c-1.439,1.333-3.199,2.308-5.118,2.839c-8.233,2.275-14.31,5.997-10.854,16.131
		C92.535,149.002,93.386,148.885,94.135,149.32z"/>
	<path display="inline" fill="#A46F3E" d="M174.382,146.194c-0.297,0-0.604-0.046-0.901-0.144c-1.472-0.483-2.258-2.027-1.758-3.449
		c1.875-5.334,7.898-8.189,13.408-6.395c2.584,0.852,5.398-0.492,6.275-2.99c0.498-1.421,2.09-2.188,3.568-1.702
		c1.473,0.484,2.26,2.029,1.758,3.449c-1.873,5.337-7.891,8.202-13.406,6.395c-2.582-0.848-5.396,0.498-6.277,2.991
		C176.646,145.484,175.553,146.194,174.382,146.194z"/>
	<path display="inline" fill="#A46F3E" d="M181.032,127.254c-0.298,0-0.604-0.046-0.901-0.144c-1.471-0.484-2.258-2.028-1.759-3.45
		c0.907-2.585,2.805-4.675,5.336-5.883c2.53-1.207,5.396-1.388,8.073-0.511c2.589,0.854,5.398-0.493,6.275-2.993
		c0.498-1.424,2.096-2.188,3.565-1.703c1.471,0.485,2.258,2.03,1.758,3.451c-1.873,5.339-7.892,8.199-13.407,6.396
		c-1.252-0.413-2.596-0.329-3.779,0.237c-1.185,0.565-2.07,1.541-2.498,2.753C183.3,126.542,182.205,127.254,181.032,127.254z"/>
	<path display="inline" fill="#A46F3E" d="M187.688,108.311c-0.299,0-0.605-0.046-0.906-0.144c-1.471-0.484-2.258-2.027-1.758-3.449
		c1.644-4.682,6.927-7.194,11.769-5.611c0.929,0.304,1.919,0.245,2.793-0.171s1.528-1.139,1.845-2.034
		c0.496-1.422,2.092-2.185,3.567-1.702c1.472,0.483,2.259,2.028,1.759,3.449c-0.799,2.27-2.461,4.105-4.682,5.163
		c-2.225,1.06-4.742,1.215-7.09,0.446c-1.906-0.627-3.987,0.364-4.635,2.21C189.951,107.6,188.855,108.311,187.688,108.311z"/>
	<g display="inline">
		<path fill="#DAE7EF" d="M140.014,118.299c-2.657,3.417-6.85,7.462-5.236,14.607l4.342,19.205h0.003l2.005-1.161
			c3.712-2.153,8.346-2.153,12.056,0l2.004,1.161c1.631,0.947,3.17,1.259,3.17,1.259c2.931-10.393,6.746-20.641,11.394-30.39
			c-2.176-5.263-6.823-7.023-10.198-8.827c-0.02-0.01-0.039-0.021-0.057-0.029c-2.135-1.184-2.268-4.007-0.659-5.807
			c0.631-0.71,0.925-1.685,0.705-2.665l-0.341-1.5c-0.374-1.653-2.078-2.708-3.786-2.346l-17.087,3.605
			c-1.71,0.362-2.801,2.009-2.427,3.659l0.34,1.5c0.225,1.001,0.94,1.775,1.845,2.154c2.078,0.868,3.347,3.11,2.284,5.043
			C140.267,117.949,140.149,118.125,140.014,118.299z"/>
	</g>
	<path display="inline" fill="#FFFFFF" d="M157.943,109.611l-19.344,4.085c-2.135,0.451-4.267-0.87-4.733-2.934l-0.279-1.229
		c-0.466-2.063,0.901-4.124,3.036-4.575l19.343-4.086c2.136-0.451,4.267,0.87,4.731,2.935l0.279,1.228
		C161.443,107.102,160.078,109.16,157.943,109.611z"/>
	<path display="inline" fill="#FBD490" d="M205.945,148.847l-4.907,68.042c-0.358,6.795-6.162,12.121-13.197,12.121h-78.936
		c-7.036,0-12.837-5.326-13.198-12.121l-4.789-65.81c-0.081-1.547,1.653-2.556,3.029-1.759l3.783,2.194
		c4.344,2.521,9.771,2.521,14.117,0l0.971-0.564c3.712-2.153,8.347-2.153,12.055,0l2.006,1.162c3.713,2.154,8.346,2.154,12.054,0
		l2.006-1.162c3.712-2.153,8.346-2.153,12.056,0l2.005,1.162c3.712,2.154,8.346,2.154,12.057,0l2.004-1.162
		c3.711-2.153,8.346-2.153,12.055,0l2.005,1.162c3.712,2.154,8.346,2.154,12.055,0l9.524-4.09
		C205.305,147.76,205.979,148.208,205.945,148.847z"/>
	<path display="inline" fill="#E0B877" d="M124.66,194.158h-19.685c-1.553,0-2.812-1.215-2.812-2.719s1.259-2.719,2.812-2.719
		h19.685c1.552,0,2.811,1.215,2.811,2.719S126.212,194.158,124.66,194.158z"/>
	<path display="inline" fill="#E0B877" d="M130.284,205.033h-25.307c-1.552,0-2.813-1.215-2.813-2.719s1.261-2.719,2.813-2.719
		h25.307c1.553,0,2.812,1.215,2.812,2.719S131.836,205.033,130.284,205.033z"/>
	<path display="inline" fill="#E0B877" d="M135.908,215.907h-30.932c-1.552,0-2.813-1.218-2.813-2.72
		c0-1.504,1.261-2.719,2.813-2.719h30.932c1.552,0,2.812,1.215,2.812,2.719C138.72,214.689,137.46,215.907,135.908,215.907z"/>
	<path display="inline" fill="#E0B877" d="M152.779,215.907h-5.622c-1.552,0-2.813-1.218-2.813-2.72c0-1.504,1.26-2.719,2.813-2.719
		h5.622c1.554,0,2.813,1.215,2.813,2.719C155.593,214.689,154.333,215.907,152.779,215.907z"/>
</g>
<g>
	<rect x="182.115" y="80.531" fill="#695A69" width="13.334" height="13.335"/>
	<path fill="#F2D057" d="M70.992,142.76v71.119h62.228v-53.34h35.561v53.34h62.229V142.76H151H70.992z M119.885,160.539v8.891v4.445
		v17.779v4.445h-4.444H93.214H88.77v-4.445v-17.779v-4.445v-8.891v-4.443h4.446h22.225h4.444V160.539L119.885,160.539z
		 M182.115,191.654v-17.779v-4.445v-8.891v-4.443h4.443h22.228h4.444v4.443v8.891v4.445v17.779v4.445h-4.444h-22.226h-4.444
		L182.115,191.654L182.115,191.654z"/>
	<polygon fill="#BF515A" points="213.229,93.866 195.449,93.866 182.115,93.866 151,93.866 88.771,93.866 66.546,142.76 
		70.992,142.76 151,142.76 231.009,142.76 235.454,142.76 	"/>
	<polygon fill="#95FFFF" points="93.214,191.654 110.995,191.654 93.214,173.875 	"/>
	<polygon fill="#80D7F0" points="110.995,191.654 115.44,191.654 115.44,173.875 93.214,173.875 	"/>
	<rect x="93.214" y="160.539" fill="#6EB1E2" width="22.227" height="8.891"/>
	<path fill="#695A69" d="M93.214,156.096h-4.443v4.443v8.891v4.445v17.779v4.445h4.444h22.226h4.444v-4.445v-17.779v-4.445v-8.891
		v-4.443h-4.444H93.214z M115.44,191.654h-4.446h-17.78v-17.779h22.226V191.654L115.44,191.654z M115.44,169.43H93.214v-8.891
		h22.226V169.43L115.44,169.43z"/>
	<polygon fill="#95FFFF" points="186.561,173.875 186.561,191.654 204.34,191.654 	"/>
	<polygon fill="#80D7F0" points="208.786,191.654 208.786,173.875 186.561,173.875 204.34,191.654 	"/>
	<rect x="186.561" y="160.539" fill="#6EB1E2" width="22.227" height="8.891"/>
	<path fill="#695A69" d="M208.786,196.1h4.444v-4.445v-17.778v-4.444v-8.892v-4.442h-4.444h-22.226h-4.444v4.442v8.892v4.444v17.778
		v4.445h4.444H208.786L208.786,196.1z M186.561,160.539h22.227v8.891h-22.227V160.539L186.561,160.539z M186.561,173.875h22.227
		v17.779h-4.446h-17.78V173.875L186.561,173.875z"/>
	<polygon fill="#944851" points="168.779,160.539 133.22,160.539 133.22,213.879 133.22,231.658 168.779,231.658 168.779,213.879 	
		"/>
	<rect x="70.992" y="213.879" fill="#E9A868" width="62.228" height="17.779"/>
	<rect x="168.779" y="213.879" fill="#E9A868" width="62.229" height="17.779"/>
</g>
<g display="none">
	<path display="inline" fill="#64798A" d="M233.818,224.826h-46.9c-5.023,0-9.098-4.075-9.098-9.1V96.518
		c0-5.024,4.072-9.098,9.098-9.098h46.9c5.024,0,9.099,4.073,9.099,9.098v119.21C242.917,220.753,238.844,224.826,233.818,224.826z"
		/>
	<g display="inline">
		<rect x="188.357" y="201.168" fill="#D5D6DB" width="44.024" height="10.771"/>
		<rect x="188.357" y="181.688" fill="#D5D6DB" width="44.024" height="10.773"/>
		<rect x="188.357" y="162.484" fill="#D5D6DB" width="44.024" height="10.771"/>
		<circle fill="#D5D6DB" cx="210.375" cy="110.835" r="8.868"/>
	</g>
	<rect x="106.204" y="205.216" display="inline" fill="#DC8744" width="39.685" height="12.581"/>
	<path display="inline" fill="#3A556A" d="M197.008,104.708c0-2.186-1.771-3.96-3.959-3.96H59.041c-2.186,0-3.958,1.773-3.958,3.96
		v82.364h141.925V104.708L197.008,104.708z"/>
	<rect x="62.823" y="108.492" display="inline" fill="#27A2DB" width="126.442" height="78.581"/>
	<path display="inline" fill="#3A556A" d="M55.082,187.072v15.521c0,2.188,1.772,3.959,3.958,3.959h134.008
		c2.187,0,3.959-1.771,3.959-3.959v-15.521H55.082z"/>
	<circle display="inline" fill="#D5D6DB" cx="126.037" cy="196.809" r="5.381"/>
	<path display="inline" fill="#2F4859" d="M150.7,216.893h-49.31c-4.975,0-9.008,4.032-9.008,9.008l0,0h67.328l0,0
		C159.709,220.925,155.675,216.893,150.7,216.893z"/>
</g>
<g display="none">
	<path display="inline" fill="#53433F" d="M198.675,202.532c-18.786,0-34.071-15.286-34.071-34.071s15.285-34.071,34.071-34.071
		c18.783,0,34.396,15.287,34.396,34.071C233.07,187.246,217.459,202.532,198.675,202.532z M198.675,144.125
		c-13.419,0-24.339,10.918-24.339,24.336s10.92,24.337,24.339,24.337c13.417,0,24.66-10.919,24.66-24.337
		S212.092,144.125,198.675,144.125z"/>
	<path display="inline" fill="#68544F" d="M101.326,202.532c-18.785,0-34.396-15.286-34.396-34.071s15.611-34.071,34.396-34.071
		c14.417,0,27.332,9.126,32.133,22.715l-9.184,3.242c-3.427-9.701-12.649-16.223-22.949-16.223
		c-13.418,0-24.662,10.918-24.662,24.337c0,13.417,11.244,24.337,24.662,24.337c10.3,0,19.522-6.521,22.949-16.223l9.184,3.242
		C128.658,193.406,115.744,202.532,101.326,202.532z"/>
	<path display="inline" fill="#53433F" d="M179.204,85.716l2.337,38.939h7.398c13.433,0,24.336-10.904,24.336-24.338V85.716H179.204
		L179.204,85.716z"/>
	<path display="inline" fill="#FF637B" d="M199.55,157.654l-9.054,3.604l-12.559-32.125l-27.744,34.752L150,163.691l-7.496-5.842
		l7.496-9.345l19.08-23.85h-44.975l-14.407,35.919l-8.957-3.698l15.187-38.062v-18.496h9.735v14.602h48.674V71.114l9.735,4.867
		v42.833L199.55,157.654z"/>
	<path display="inline" fill="#E63950" d="M199.55,157.654l-9.054,3.604l-12.559-32.125l-27.744,34.752L150,163.691v-15.187
		l19.08-23.85H150v-9.736h24.337V71.113l9.735,4.867v42.833L199.55,157.654z"/>
	<path display="inline" fill="#D3D3D8" d="M150,157.654c-2.532-2.338-5.938-3.795-9.734-3.795h-38.939
		c-8.081,0-14.926,6.521-14.926,14.602c0,8.079,6.846,14.604,14.926,14.604h38.939c3.796,0,7.203-1.461,9.734-3.797
		c3.018-2.629,4.868-6.523,4.868-10.807S153.018,160.284,150,157.654z"/>
	<path display="inline" fill="#BABAC0" d="M154.868,168.461c0,4.282-1.853,8.178-4.868,10.807v-21.613
		C153.018,160.284,154.868,164.18,154.868,168.461z"/>
	<path display="inline" fill="#BABAC0" d="M198.675,183.063c-8.053,0-14.604-6.552-14.604-14.603
		c0-8.053,6.552-14.603,14.604-14.603c8.05,0,14.601,6.55,14.601,14.603C213.275,176.512,206.725,183.063,198.675,183.063z"/>
	<path display="inline" fill="#53433F" d="M184.07,66.246h-29.202v9.734h29.202V66.246z"/>
	<path display="inline" fill="#68544F" d="M106.193,95.451h29.205v9.734h-29.205V95.451z"/>
</g>
<circle display="none" fill="#FFFFFF" cx="151.143" cy="151.1" r="96.834"/>
<g display="none">
	<path display="inline" d="M142.156,160.751c0.025,0.151,0.044,0.298,0.058,0.437c0.012,0.14,0.019,0.299,0.019,0.477
		c0,0.304-0.089,0.583-0.266,0.836c-0.076,0.126-0.178,0.247-0.305,0.359c-0.127,0.115-0.278,0.209-0.456,0.285
		c-0.633,0.355-1.305,0.481-2.014,0.381c-0.355-0.102-0.672-0.267-0.95-0.493c-0.051-0.052-0.089-0.083-0.113-0.097
		c-0.026-0.013-0.052-0.043-0.076-0.095c-0.025-0.024-0.052-0.058-0.076-0.095c-0.025-0.038-0.063-0.07-0.114-0.096
		c-0.127-0.127-0.228-0.246-0.304-0.36c-0.076-0.114-0.152-0.235-0.229-0.36c-0.051-0.128-0.107-0.248-0.171-0.361
		c-0.063-0.113-0.133-0.233-0.209-0.36c-0.051-0.103-0.102-0.196-0.151-0.285c-0.052-0.089-0.09-0.184-0.114-0.284
		c-0.102-0.229-0.165-0.432-0.19-0.607l-0.798-1.862c-1.748,0-3.49,0.007-5.225,0.019c-1.735,0.015-3.478,0.008-5.226-0.019
		l-0.798,1.862c-0.051,0.101-0.082,0.201-0.095,0.304c-0.013,0.101-0.045,0.202-0.095,0.304c-0.052,0.103-0.096,0.196-0.134,0.285
		c-0.037,0.088-0.082,0.184-0.133,0.285c-0.076,0.127-0.146,0.247-0.209,0.361c-0.063,0.113-0.133,0.232-0.209,0.359
		c-0.051,0.127-0.114,0.247-0.189,0.361c-0.076,0.114-0.178,0.232-0.305,0.359c-0.051,0.025-0.089,0.059-0.113,0.097
		c-0.026,0.037-0.052,0.069-0.076,0.095c-0.025,0.051-0.051,0.082-0.076,0.096c-0.025,0.013-0.063,0.045-0.114,0.096
		c-0.279,0.228-0.596,0.393-0.95,0.494c-0.709,0.101-1.381-0.025-2.014-0.381c-0.178-0.076-0.329-0.17-0.456-0.285
		c-0.127-0.113-0.228-0.234-0.304-0.36c-0.178-0.253-0.267-0.532-0.267-0.836c0-0.179,0.007-0.337,0.02-0.476
		c0.013-0.14,0.031-0.285,0.057-0.438c0.051-0.229,0.114-0.456,0.19-0.686l0.114-0.342l7.903-19.456l0.229-0.608
		c0.05-0.152,0.114-0.291,0.189-0.418c0.076-0.126,0.14-0.278,0.19-0.456c0.126-0.329,0.266-0.621,0.418-0.874
		c0.076-0.152,0.164-0.291,0.266-0.418c0.102-0.126,0.203-0.253,0.305-0.38c0.151-0.202,0.366-0.367,0.646-0.494
		c0.354-0.126,0.766-0.19,1.235-0.19c0.468,0,0.88,0.064,1.234,0.19c0.279,0.127,0.494,0.292,0.646,0.494
		c0.177,0.228,0.367,0.494,0.57,0.798c0.151,0.253,0.29,0.545,0.418,0.874c0.05,0.177,0.113,0.329,0.189,0.456
		c0.076,0.127,0.139,0.266,0.19,0.418l0.228,0.608l7.904,19.456l0.114,0.342C142.042,160.295,142.105,160.523,142.156,160.751z
		 M133.15,151.441c-0.329-0.735-0.665-1.496-1.007-2.28c-0.342-0.785-0.703-1.583-1.083-2.394c-0.102-0.228-0.203-0.462-0.304-0.703
		c-0.102-0.241-0.203-0.475-0.305-0.703c-0.076,0.228-0.165,0.462-0.266,0.703c-0.102,0.241-0.203,0.475-0.304,0.703
		c-0.381,0.811-0.741,1.609-1.083,2.394c-0.343,0.785-0.679,1.545-1.008,2.28l-0.684,1.672h6.726L133.15,151.441z"/>
	<path display="inline" d="M162.828,160.447c0.051,0.126,0.076,0.31,0.076,0.551c0,0.24,0,0.438,0,0.589
		c0,0.202-0.039,0.394-0.115,0.569c-0.076,0.178-0.178,0.343-0.303,0.494c-0.229,0.305-0.56,0.533-0.988,0.685
		c-0.609,0.202-1.178,0.304-1.711,0.304c-0.279,0.025-0.57,0.038-0.873,0.038c-0.305,0-0.609,0.024-0.912,0.076h-0.152
		c-1.951,0.024-3.965,0.024-6.043,0c-0.506-0.024-1.076-0.019-1.708,0.019c-0.633,0.039-1.254,0.025-1.861-0.037
		c-0.608-0.063-1.159-0.215-1.653-0.457c-0.494-0.239-0.843-0.627-1.045-1.157c-0.051-0.127-0.089-0.247-0.114-0.361
		c-0.025-0.112-0.038-0.233-0.038-0.36c-0.102-0.861-0.14-1.709-0.114-2.545s0.038-1.66,0.038-2.472l0.076-5.51v-5.092
		c0-0.912,0.006-1.722,0.02-2.432c0.012-0.708,0.031-1.494,0.057-2.356v-0.19c0.025-0.253,0.044-0.506,0.057-0.76
		c0.013-0.253,0.02-0.506,0.02-0.76c0.051-0.583,0.189-1.076,0.418-1.482c0.152-0.38,0.418-0.684,0.798-0.912
		c0.329-0.228,0.722-0.342,1.178-0.342c0.178,0,0.349,0.006,0.514,0.019c0.164,0.013,0.322,0.032,0.475,0.057
		c0.152,0.025,0.298,0.076,0.438,0.152c0.139,0.076,0.284,0.177,0.437,0.304c0.152,0.178,0.291,0.393,0.418,0.646
		c0.101,0.279,0.164,0.558,0.19,0.836c0.024,0.177,0.05,0.342,0.075,0.494c0.025,0.152,0.038,0.304,0.038,0.456
		c-0.05,0.152-0.075,0.304-0.075,0.456c0,0.152,0,0.292,0,0.418v0.684l-0.152,17.898l7.523,0.076h1.787
		c0.151,0,0.315,0.006,0.494,0.021c0.176,0.012,0.354,0.03,0.53,0.057c0.203,0.025,0.382,0.051,0.533,0.076
		c0.149,0.025,0.303,0.063,0.455,0.113c0.278,0.075,0.506,0.203,0.685,0.381C162.574,159.939,162.752,160.193,162.828,160.447z"/>
	<path display="inline" d="M183.5,160.447c0.051,0.126,0.076,0.31,0.076,0.551c0,0.24,0,0.438,0,0.589
		c0,0.202-0.039,0.394-0.115,0.569c-0.076,0.178-0.178,0.343-0.303,0.494c-0.229,0.305-0.559,0.533-0.988,0.685
		c-0.609,0.202-1.178,0.304-1.711,0.304c-0.279,0.025-0.57,0.038-0.873,0.038c-0.305,0-0.609,0.024-0.912,0.076h-0.152
		c-1.951,0.024-3.965,0.024-6.043,0c-0.506-0.024-1.076-0.019-1.709,0.019c-0.633,0.039-1.254,0.025-1.86-0.037
		c-0.609-0.063-1.16-0.215-1.654-0.457c-0.493-0.239-0.842-0.627-1.045-1.157c-0.051-0.127-0.088-0.247-0.112-0.361
		c-0.025-0.112-0.039-0.233-0.039-0.36c-0.103-0.861-0.14-1.709-0.113-2.545c0.025-0.836,0.037-1.66,0.037-2.472l0.076-5.51v-5.092
		c0-0.912,0.006-1.722,0.02-2.432c0.012-0.708,0.031-1.494,0.057-2.356v-0.19c0.025-0.253,0.045-0.506,0.057-0.76
		c0.015-0.253,0.021-0.506,0.021-0.76c0.052-0.583,0.188-1.076,0.418-1.482c0.152-0.38,0.418-0.684,0.8-0.912
		c0.327-0.228,0.721-0.342,1.178-0.342c0.178,0,0.348,0.006,0.514,0.019c0.164,0.013,0.322,0.032,0.475,0.057
		s0.297,0.076,0.438,0.152c0.139,0.076,0.282,0.177,0.437,0.304c0.151,0.178,0.291,0.393,0.418,0.646
		c0.102,0.279,0.164,0.558,0.19,0.836c0.022,0.177,0.049,0.342,0.073,0.494c0.025,0.152,0.039,0.304,0.039,0.456
		c-0.051,0.152-0.075,0.304-0.075,0.456c0,0.152,0,0.292,0,0.418v0.684l-0.152,17.898l7.522,0.076h1.787
		c0.152,0,0.316,0.006,0.494,0.021c0.176,0.012,0.354,0.03,0.531,0.057c0.203,0.025,0.381,0.051,0.533,0.076
		c0.15,0.025,0.303,0.063,0.455,0.113c0.279,0.075,0.506,0.203,0.684,0.381C183.246,159.939,183.424,160.193,183.5,160.447z"/>
</g>
</svg>
