<?xml version="1.0" encoding="utf-8"?>
<!-- Generator: Adobe Illustrator 16.0.0, SVG Export Plug-In . SVG Version: 6.00 Build 0)  -->
<!DOCTYPE svg PUBLIC "-//W3C//DTD SVG 1.1//EN" "http://www.w3.org/Graphics/SVG/1.1/DTD/svg11.dtd">
<svg version="1.1" id="Layer_1" xmlns="http://www.w3.org/2000/svg" xmlns:xlink="http://www.w3.org/1999/xlink" x="0px" y="0px"
	 width="300px" height="300px" viewBox="0 0 300 300" enable-background="new 0 0 300 300" xml:space="preserve">
<g>
	<g>
		<path fill="#635360" d="M163.404,115.872c-1.592,0-2.882-1.29-2.882-2.881V89.945c0-12.708-10.338-23.046-23.045-23.046
			c-12.708,0-23.047,10.338-23.047,23.046v23.045c0,1.591-1.289,2.881-2.88,2.881c-1.591,0-2.881-1.29-2.881-2.881V89.945
			c0-15.885,12.923-28.808,28.808-28.808c15.884,0,28.807,12.923,28.807,28.808v23.045
			C166.284,114.582,164.995,115.872,163.404,115.872z"/>
		<path fill="#F5B483" d="M197.973,95.707H59.697c-1.59,0-2.881,1.29-2.881,2.881v135.394c0,1.591,1.291,2.881,2.881,2.881h138.276
			c1.592,0,2.881-1.29,2.881-2.881V98.587C200.854,96.996,199.564,95.707,197.973,95.707z"/>
		<path fill="#EF8231" d="M174.927,95.707H59.697c-1.59,0-2.881,1.29-2.881,2.881v135.394c0,1.591,1.291,2.881,2.881,2.881h115.23
			c1.591,0,2.88-1.29,2.88-2.881V98.587C177.807,96.996,176.518,95.707,174.927,95.707z"/>
		<path fill="#ED623A" d="M79.862,233.981V98.587c0-1.591,1.29-2.881,2.881-2.881H59.697c-1.59,0-2.881,1.29-2.881,2.881v135.394
			c0,1.591,1.291,2.881,2.881,2.881h23.046C81.152,236.862,79.862,235.572,79.862,233.981z"/>
		<path fill="#83757F" d="M137.478,115.872c-1.591,0-2.881-1.29-2.881-2.881V89.945c0-12.708-10.338-23.046-23.046-23.046
			c-12.708,0-23.046,10.338-23.046,23.046v23.045c0,1.591-1.29,2.881-2.881,2.881s-2.88-1.29-2.88-2.881V89.945
			c0-15.885,12.923-28.808,28.807-28.808s28.808,12.923,28.808,28.808v23.045C140.358,114.582,139.068,115.872,137.478,115.872z"/>
		<circle fill="#FCE6D6" cx="85.624" cy="115.872" r="5.762"/>
		<circle fill="#FCE6D6" cx="137.478" cy="115.872" r="5.762"/>
		<g>
			<path fill="#F8DA7A" d="M111.55,124.514c-1.591,0-2.881-1.29-2.881-2.88V95.707c0-1.591,1.29-2.881,2.881-2.881
				c1.591,0,2.88,1.29,2.88,2.881v25.927C114.431,123.224,113.142,124.514,111.55,124.514z"/>
			<path fill="#EFEEEF" d="M125.11,131.119l-11.522-11.522c-1.125-1.125-2.949-1.125-4.074,0L97.99,131.119
				c-0.54,0.541-0.843,1.273-0.843,2.037v31.688c0,1.591,1.29,2.881,2.88,2.881h23.045c1.591,0,2.881-1.29,2.881-2.881v-31.688
				C125.954,132.392,125.651,131.659,125.11,131.119z"/>
			<path fill="#D0CBCF" d="M105.789,164.844v-31.688c0-0.764,0.303-1.497,0.843-2.037l9.239-9.238l-2.284-2.284
				c-1.125-1.125-2.949-1.125-4.074,0L97.99,131.119c-0.54,0.541-0.843,1.273-0.843,2.038v31.688c0,1.591,1.29,2.88,2.88,2.88h8.642
				C107.079,167.725,105.789,166.435,105.789,164.844z"/>
		</g>
	</g>
	<g>
		<path fill="#635360" d="M209.495,167.725c-1.591,0-2.881-1.29-2.881-2.881v-14.403c0-11.119-9.046-20.166-20.164-20.166
			c-11.12,0-20.166,9.047-20.166,20.166v5.761c0,1.591-1.29,2.88-2.88,2.88c-1.592,0-2.882-1.289-2.882-2.88v-5.761
			c0-14.296,11.631-25.927,25.928-25.927c14.296,0,25.927,11.631,25.927,25.927v14.403
			C212.377,166.435,211.087,167.725,209.495,167.725z"/>
		<path fill="#FDF3D3" d="M238.303,153.321H114.431c-1.59,0-2.88,1.29-2.88,2.881v77.779c0,1.591,1.29,2.881,2.88,2.881h95.064
			c0.366,0,0.73-0.069,1.07-0.206l13.334-5.333l13.333,5.333c1.863,0.745,3.951-0.675,3.951-2.675v-77.779
			C241.184,154.611,239.894,153.321,238.303,153.321z"/>
		<path fill="#FBE6A6" d="M241.184,233.981v-77.779c0-1.591-1.29-2.881-2.881-2.881h-14.403v78.002l13.333,5.333
			C239.096,237.401,241.184,235.981,241.184,233.981z"/>
		<path fill="#F8DA7A" d="M209.495,153.321h-95.064c-1.59,0-2.88,1.29-2.88,2.881v77.779c0,1.591,1.29,2.881,2.88,2.881h95.064
			c1.592,0,2.882-1.29,2.882-2.881v-77.779C212.377,154.611,211.087,153.321,209.495,153.321z"/>
		<path fill="#F4C121" d="M131.716,233.981v-77.779c0-1.591,1.29-2.881,2.881-2.881h-20.166c-1.59,0-2.88,1.29-2.88,2.881v77.779
			c0,1.591,1.29,2.881,2.88,2.881h20.166C133.005,236.862,131.716,235.572,131.716,233.981z"/>
		<path fill="#83757F" d="M183.568,176.366c-1.59,0-2.88-1.289-2.88-2.88v-23.045c0-11.119-9.047-20.166-20.166-20.166
			c-11.119,0-20.165,9.047-20.165,20.166v23.045c0,1.591-1.291,2.88-2.88,2.88c-1.591,0-2.881-1.289-2.881-2.88v-23.045
			c0-14.296,11.63-25.927,25.926-25.927c14.297,0,25.928,11.631,25.928,25.927v23.045
			C186.45,175.077,185.16,176.366,183.568,176.366z"/>
		<circle fill="#FDF3D3" cx="137.478" cy="176.367" r="5.762"/>
		<circle fill="#FDF3D3" cx="183.568" cy="176.367" r="5.762"/>
	</g>
</g>
</svg>
