<?xml version="1.0" encoding="utf-8"?>
<!-- Generator: Adobe Illustrator 16.0.0, SVG Export Plug-In . SVG Version: 6.00 Build 0)  -->
<!DOCTYPE svg PUBLIC "-//W3C//DTD SVG 1.1//EN" "http://www.w3.org/Graphics/SVG/1.1/DTD/svg11.dtd">
<svg version="1.1" id="Layer_1" xmlns="http://www.w3.org/2000/svg" xmlns:xlink="http://www.w3.org/1999/xlink" x="0px" y="0px"
	 width="200px" height="200px" viewBox="0 0 200 200" enable-background="new 0 0 200 200" xml:space="preserve">
<g display="none">
	<g display="inline">
		<path fill="#A7A7A7" d="M176.07,161.363H63.061c-4.658,0-8.433-3.774-8.433-8.431c0-4.659,3.775-8.434,8.433-8.434h113.007
			c4.658,0,8.433,3.774,8.433,8.434C184.5,157.589,180.728,161.363,176.07,161.363z"/>
		<path fill="#A7A7A7" d="M176.07,108.433H63.061c-4.658,0-8.433-3.774-8.433-8.433c0-4.658,3.775-8.433,8.433-8.433h113.007
			c4.658,0,8.433,3.775,8.433,8.433C184.503,104.658,180.728,108.433,176.07,108.433z"/>
		<path fill="#A7A7A7" d="M176.07,55.5H63.061c-4.658,0-8.433-3.775-8.433-8.433c0-4.657,3.775-8.433,8.433-8.433h113.007
			c4.658,0,8.433,3.775,8.433,8.433C184.5,51.726,180.728,55.5,176.07,55.5z"/>
		<circle fill="#A7A7A7" cx="26.825" cy="47.719" r="11.325"/>
		<circle fill="#A7A7A7" cx="26.825" cy="100" r="11.325"/>
		<circle fill="#A7A7A7" cx="26.825" cy="152.28" r="11.325"/>
	</g>
</g>
<g>
	<g>
		<path fill="#354D90" d="M176.07,161.365H63.061c-4.658,0-8.433-3.775-8.433-8.433c0-4.658,3.774-8.433,8.433-8.433h113.007
			c4.657,0,8.433,3.774,8.433,8.433C184.5,157.59,180.728,161.365,176.07,161.365z"/>
		<path fill="#354D90" d="M176.07,108.433H63.061c-4.658,0-8.433-3.774-8.433-8.433c0-4.657,3.774-8.433,8.433-8.433h113.007
			c4.657,0,8.433,3.775,8.433,8.433C184.503,104.658,180.728,108.433,176.07,108.433z"/>
		<path fill="#354D90" d="M176.07,55.5H63.061c-4.658,0-8.433-3.775-8.433-8.433c0-4.657,3.774-8.433,8.433-8.433h113.007
			c4.657,0,8.433,3.775,8.433,8.433C184.5,51.725,180.728,55.5,176.07,55.5z"/>
		<circle fill="#354D90" cx="26.825" cy="47.72" r="11.325"/>
		<circle fill="#354D90" cx="26.825" cy="100" r="11.325"/>
		<circle fill="#354D90" cx="26.825" cy="152.28" r="11.325"/>
	</g>
</g>
</svg>
