<?xml version="1.0" encoding="utf-8"?>
<!-- Generator: Adobe Illustrator 16.0.0, SVG Export Plug-In . SVG Version: 6.00 Build 0)  -->
<!DOCTYPE svg PUBLIC "-//W3C//DTD SVG 1.1//EN" "http://www.w3.org/Graphics/SVG/1.1/DTD/svg11.dtd">
<svg version="1.1" id="Capa_1" xmlns="http://www.w3.org/2000/svg" xmlns:xlink="http://www.w3.org/1999/xlink" x="0px" y="0px"
	 width="460.5px" height="460.5px" viewBox="0 0 460.5 460.5" enable-background="new 0 0 460.5 460.5" xml:space="preserve">
<circle fill="#D6E2EC" cx="230.25" cy="254.578" r="96.922"/>
<g enable-background="new    ">
	<path d="M149.076,364.812c-0.827-0.052-1.641-0.168-2.442-0.349c-0.802-0.182-1.512-0.439-2.132-0.775
		c-0.62-0.337-1.124-0.813-1.512-1.434s-0.582-1.448-0.582-2.481s0.335-1.938,1.008-2.713c0.413-0.413,0.93-0.723,1.551-0.931
		c0.62-0.205,1.213-0.36,1.783-0.465c0.568-0.103,1.072-0.155,1.512-0.155c0.438,0,0.685,0,0.736,0l42.405,0.078
		c1.343,0,2.57,0.013,3.682,0.038c1.111,0.027,2.105,0.401,2.984,1.124c1.085,0.982,1.628,2.094,1.628,3.334
		c0,0.775-0.233,1.485-0.698,2.132c-0.465,0.646-1.085,1.098-1.861,1.356c-1.034,0.413-2.106,0.698-3.217,0.853
		c-1.112,0.155-2.209,0.259-3.295,0.311c-3.773,0.155-7.494,0.206-11.163,0.155c-3.67-0.053-7.236-0.078-10.698-0.078
		c-3.721,0-7.353,0.025-10.892,0.078C154.334,364.94,151.401,364.915,149.076,364.812z M160.626,342.408
		c-0.569,0.414-1.151,0.879-1.744,1.396c-0.595,0.517-1.202,1.046-1.822,1.589s-1.267,1.047-1.938,1.512
		c-0.672,0.465-1.422,0.802-2.248,1.008c-0.931,0.259-1.938,0.232-3.023-0.077c-1.085-0.311-1.913-0.854-2.481-1.629
		c-0.414-0.62-0.62-1.24-0.62-1.86s0.116-1.227,0.349-1.821c0.232-0.594,0.529-1.175,0.891-1.744
		c0.361-0.568,0.749-1.086,1.163-1.551c1.55-1.809,3.14-3.527,4.768-5.155s3.32-3.217,5.078-4.768
		c0.568-0.465,1.214-1.098,1.938-1.899c0.723-0.801,1.396-1.589,2.016-2.364c0.723-0.931,1.473-1.86,2.248-2.791
		c0-0.93,0.025-1.86,0.078-2.79c0.051-0.775,0.089-1.628,0.116-2.559c0.025-0.931,0.09-1.757,0.194-2.48
		c0.103-0.931,0.335-1.809,0.698-2.636c0.361-0.826,0.749-1.446,1.163-1.86c0.671-0.621,1.576-1.021,2.713-1.202
		c1.136-0.181,2.119-0.142,2.946,0.116c1.188,0.362,2.054,0.982,2.597,1.86c0.542,0.88,0.865,1.913,0.969,3.102
		c0.051,0.465,0.09,1.111,0.117,1.938c0.025,0.827,0.077,1.667,0.155,2.52s0.181,1.667,0.31,2.442
		c0.128,0.774,0.349,1.37,0.659,1.782c0.413,0.621,0.814,1.216,1.201,1.783c0.388,0.569,0.84,1.138,1.357,1.706
		c1.809,2.016,3.591,4.044,5.349,6.085c1.756,2.042,3.566,4.045,5.426,6.008c0.62,0.62,1.214,1.396,1.783,2.326
		c0.568,0.93,0.969,1.874,1.202,2.829c0.232,0.957,0.206,1.86-0.078,2.714c-0.285,0.853-0.969,1.538-2.054,2.054
		c-0.775,0.362-1.525,0.504-2.249,0.427c-0.724-0.077-1.422-0.283-2.093-0.62c-0.672-0.336-1.306-0.762-1.899-1.279
		c-0.595-0.516-1.124-1.033-1.589-1.551l-13.023-12.325L160.626,342.408z"/>
	<path d="M255.978,355.896c0.155,0.053,0.31,0.065,0.466,0.039c0.154-0.025,0.31-0.039,0.465-0.039
		c0.878,0.104,1.691,0.271,2.441,0.504c0.748,0.232,1.485,0.659,2.209,1.279c0.724,0.725,1.086,1.628,1.086,2.713
		c0,0.568-0.091,1.176-0.271,1.822c-0.182,0.646-0.426,1.149-0.736,1.512c-0.414,0.413-0.93,0.723-1.551,0.931
		c-0.62,0.205-1.215,0.349-1.783,0.426s-1.072,0.116-1.512,0.116s-0.686,0-0.736,0h-43.412c-0.259,0-0.517,0.013-0.775,0.039
		c-0.259,0.025-0.517,0.039-0.775,0.039c-1.085,0.051-2.248,0.038-3.488-0.039c-1.241-0.078-2.3-0.479-3.179-1.202
		c-1.085-0.981-1.628-2.093-1.628-3.333c0-0.775,0.233-1.576,0.698-2.403c0.465-0.826,1.085-1.396,1.861-1.705
		c1.033-0.413,2.105-0.62,3.217-0.62c1.111,0,2.235-0.025,3.373-0.078h0.387c2.481-0.051,4.91-0.077,7.287-0.077
		c2.376,0,4.857,0.026,7.442,0.077l-0.078-8.372h-5.504h-1.396c-0.827,0-1.732-0.025-2.713-0.077
		c-0.982-0.051-1.938-0.181-2.868-0.388c-0.93-0.206-1.81-0.504-2.636-0.892c-0.828-0.388-1.525-0.917-2.093-1.59
		c-0.517-0.62-0.905-1.382-1.163-2.286c-0.259-0.904-0.427-1.809-0.504-2.714c-0.078-0.903-0.116-1.679-0.116-2.325
		c0-0.646,0-1.021,0-1.124v-20.544c0-0.051,0-0.232,0-0.542c0-0.311,0.025-0.659,0.077-1.047c0.051-0.388,0.128-0.775,0.233-1.163
		c0.103-0.388,0.232-0.736,0.387-1.046c0.465-0.724,0.931-1.266,1.396-1.628c0.465-0.361,1.085-0.594,1.861-0.698
		c0.206-0.051,0.452-0.077,0.736-0.077c0.283,0,0.582-0.025,0.892-0.078c0.31,0,0.671-0.025,1.085-0.077h31.629h0.931
		c0.258,0,0.529,0.014,0.813,0.039c0.283,0.026,0.555,0.013,0.814-0.039H249c0.466,0,0.943,0.026,1.435,0.077
		c0.491,0.053,0.97,0.155,1.435,0.311c0.465,0.104,0.93,0.232,1.395,0.388c0.466,0.155,0.879,0.439,1.24,0.853
		c0.259,0.362,0.491,0.608,0.698,0.736c0.206,0.13,0.361,0.427,0.466,0.892c0.154,0.673,0.18,1.447,0.077,2.326
		c-0.155,1.085-0.595,2.028-1.317,2.829c-0.725,0.802-1.655,1.201-2.791,1.201h-33.025v3.799v0.698c0.413,0,1.02,0.013,1.822,0.038
		c0.801,0.027,1.731,0.039,2.791,0.039c1.059,0,2.17,0,3.333,0c1.163,0,2.337,0,3.527,0c2.739,0,5.709-0.025,8.915-0.077h7.52
		c0.258,0,0.516,0.013,0.775,0.038c0.258,0.027,0.516,0.014,0.775-0.038h2.094c0.567,0,1.148,0.052,1.744,0.154
		c0.593,0.104,1.148,0.311,1.666,0.62c0.775,0.466,1.266,1.151,1.473,2.055c0.207,0.905,0.258,1.771,0.155,2.597
		c0,0.415-0.013,0.789-0.038,1.124c-0.027,0.337-0.169,0.659-0.427,0.97c-0.62,0.879-1.24,1.408-1.86,1.589
		c-0.621,0.182-1.293,0.271-2.016,0.271h-9.303c-3.102,0.052-5.918,0.077-8.45,0.077h-10.388c-0.672,0-1.345,0-2.016,0
		c-0.672,0-1.37-0.025-2.093-0.077c0.051,1.034,0.078,1.654,0.078,1.86c0,0.207,0,0.246,0,0.116c0-0.128-0.026-0.478-0.078-1.046
		v3.721c0,0.362,0.012,0.595,0.039,0.697c0.025,0.104,0.064,0.144,0.116,0.116c0.051-0.025,0.103-0.063,0.155-0.116
		c0.051-0.051,0.103-0.077,0.155-0.077c0.361,0.207,0.942,0.362,1.744,0.465c0.801,0.104,1.718,0.155,2.752,0.155h0.31
		c0.258,0,0.892-0.012,1.899-0.039c1.008-0.025,2.196-0.038,3.566-0.038c1.369,0,2.816,0,4.341,0s2.972,0,4.342,0
		c1.369,0,2.545,0.013,3.527,0.038c0.98,0.027,1.628,0.039,1.938,0.039h3.722c0.516,0,0.903-0.025,1.163-0.077h1.317
		c0.826,0,1.653,0.026,2.481,0.077c0.825,0.052,1.652,0.207,2.48,0.465c0.154,0.053,0.297,0.104,0.426,0.155
		c0.129,0.052,0.271,0.13,0.426,0.232c1.292,0.931,1.887,2.067,1.783,3.411c-0.104,1.345-0.879,2.378-2.325,3.101
		c-1.138,0.62-2.325,1.035-3.565,1.24c-1.24,0.208-2.456,0.311-3.645,0.311h-3.178c-0.569,0.052-1.422,0.065-2.559,0.039
		c-1.137-0.025-2.61-0.039-4.418-0.039l0.076,8.372c1.241,0,2.391-0.012,3.451-0.038c1.059-0.025,2.092-0.039,3.1-0.039
		s2.041,0.014,3.102,0.039c1.059,0.026,2.183,0.038,3.372,0.038c0.931,0.053,1.834,0.039,2.714-0.038
		C254.297,355.78,255.15,355.794,255.978,355.896z"/>
	<path d="M283.266,307.523c0.67,0,1.317,0.026,1.938,0.077c0.62,0.052,1.24,0.13,1.861,0.232c1.963,0.311,3.693,1.215,5.192,2.714
		c1.242,1.344,2.262,2.881,3.063,4.612c0.801,1.732,1.436,3.554,1.9,5.465c0.465,1.913,0.801,3.864,1.008,5.854
		c0.205,1.99,0.361,3.914,0.465,5.775c0.104,2.377,0.129,4.755,0.078,7.132c-0.053,2.378-0.209,4.729-0.467,7.055
		c-0.258,2.43-0.633,4.871-1.123,7.325c-0.492,2.455-1.383,4.665-2.674,6.628c-1.086,1.654-2.432,3.011-4.032,4.07
		c-1.603,1.059-3.282,1.77-5.039,2.132c-1.602,0.311-3.23,0.361-4.884,0.155c-1.654-0.207-3.23-0.75-4.729-1.628
		c-1.396-0.827-2.571-1.86-3.527-3.101c-0.957-1.241-1.796-2.688-2.52-4.342c-1.034-2.48-1.628-5.039-1.783-7.675
		c-0.207-2.17-0.349-4.341-0.427-6.512c-0.076-2.171-0.115-4.341-0.115-6.512c0-1.498,0.012-2.958,0.039-4.38
		c0.025-1.421,0.115-2.855,0.271-4.303c0.103-1.188,0.232-2.364,0.388-3.527c0.155-1.162,0.336-2.313,0.543-3.449
		c0.205-0.931,0.387-1.809,0.543-2.636c0.154-0.826,0.438-1.679,0.852-2.559c0.414-0.878,0.865-1.705,1.357-2.48
		c0.49-0.775,1.072-1.473,1.744-2.093c1.137-1.137,2.402-2.016,3.799-2.636c1.395-0.621,2.842-1.033,4.341-1.241
		c0.31-0.051,0.632-0.077,0.97-0.077C282.632,307.601,282.955,307.575,283.266,307.523z M283.033,356.284
		c0.98,0,1.938-0.31,2.867-0.93c0.879-0.62,1.499-1.446,1.861-2.481c0.361-1.033,0.671-2.17,0.93-3.41
		c0.414-2.377,0.646-4.91,0.698-7.598c0.051-2.687,0.025-5.271-0.077-7.752c0-0.981-0.027-2.028-0.078-3.14
		c-0.053-1.111-0.143-2.21-0.271-3.295s-0.323-2.132-0.581-3.14c-0.259-1.008-0.62-1.899-1.085-2.675
		c-0.518-0.878-1.138-1.55-1.861-2.016c-0.725-0.465-1.5-0.646-2.325-0.542c-0.88,0.104-1.681,0.414-2.403,0.93
		c-0.725,0.518-1.318,1.293-1.783,2.326l-0.697,1.628c-0.311,0.982-0.543,2.003-0.697,3.062c-0.156,1.061-0.285,2.106-0.389,3.14
		c-0.104,1.035-0.182,2.094-0.232,3.179c-0.052,1.086-0.077,2.146-0.077,3.179c0.051,1.034,0.038,2.042-0.039,3.023
		c-0.077,0.982-0.065,1.99,0.039,3.023c0.103,1.344,0.245,2.79,0.427,4.341c0.18,1.551,0.477,3.012,0.891,4.38
		c0.414,1.37,1.008,2.508,1.783,3.411C280.707,355.833,281.74,356.284,283.033,356.284z M311.095,341.4
		c-0.723-0.104-1.68-0.167-2.867-0.194c-1.189-0.025-2.145-0.089-2.869-0.193c-1.809-0.104-3.1-0.775-3.875-2.016
		s-0.881-2.842-0.311-4.807c0.104-0.413,0.322-0.853,0.658-1.317c0.336-0.466,0.66-0.826,0.969-1.086
		c0.725-0.516,1.447-0.853,2.172-1.008c0.826-0.103,1.822-0.128,2.984-0.077c1.162,0.052,2.182,0.026,3.063-0.077h0.232v-0.311
		c0-0.62,0.012-1.085,0.039-1.396c0.025-0.31,0.039-0.594,0.039-0.853c0-0.258-0.014-0.543-0.039-0.853
		c-0.027-0.311-0.039-0.801-0.039-1.473c0-1.344-0.014-2.675-0.039-3.993c-0.027-1.317-0.014-2.622,0.039-3.914v-1.086
		c0-0.671,0.012-1.407,0.039-2.209c0.025-0.801,0.09-1.602,0.193-2.403c0.104-0.801,0.283-1.551,0.543-2.248
		c0.258-0.698,0.619-1.279,1.084-1.744c0.775-0.671,1.602-1.008,2.482-1.008h0.154c1.24,0.052,2.234,0.426,2.984,1.124
		c0.748,0.697,1.318,1.538,1.705,2.52c0.389,0.982,0.633,2.003,0.736,3.062c0.104,1.061,0.156,2.004,0.156,2.83v46.513
		c0,0.051,0,0.297,0,0.736c0,0.438-0.053,0.97-0.156,1.59s-0.258,1.24-0.465,1.86s-0.543,1.136-1.008,1.551
		c-0.361,0.36-0.879,0.646-1.551,0.853c-0.672,0.206-1.291,0.31-1.859,0.31c-1.24,0-2.223-0.414-2.947-1.24
		c-0.672-0.725-1.084-1.473-1.24-2.248c-0.154-0.775-0.283-1.603-0.387-2.48c0-0.155-0.014-0.311-0.039-0.465
		c-0.027-0.155-0.039-0.337-0.039-0.543c-0.104-0.827-0.154-1.706-0.154-2.636c0-0.931-0.027-1.86-0.078-2.791
		c-0.051-0.568-0.076-1.124-0.076-1.667c0-0.542,0-1.097,0-1.666v-1.783c0-0.517,0-1.202,0-2.055s-0.014-1.744-0.039-2.674
		c-0.027-0.931-0.039-1.809-0.039-2.636c0-0.826,0-1.524,0-2.094c0-0.258,0-0.542,0-0.853S311.198,341.659,311.095,341.4z"/>
</g>
<g>
	<path d="M206.519,163.59c0-5.948-2.322-11.662-6.47-15.928c6.341-2.588,13.615-1.157,18.505,3.642l4.013-4.094
		c-7.35-7.22-18.621-8.628-27.521-3.44c-7.085-4.118-15.832-4.135-22.934-0.043c-7.101,4.093-11.472,11.668-11.461,19.863v11.467
		h-11.467c-1.583,0-2.866,1.284-2.866,2.867v97.467c0,1.584,1.283,2.866,2.866,2.866h60.2v-5.733h-34.399V180.79h8.6v11.467h5.733
		V180.79h20.066v-5.733h-2.866L206.519,163.59L206.519,163.59z M163.037,256.6c-0.563-0.752-1.446-1.195-2.386-1.195
		c-0.938,0-1.822,0.443-2.385,1.195l-6.215,9.332v-78.549l6.215,9.322c0.532,0.798,1.427,1.276,2.385,1.276
		c0.959,0,1.854-0.479,2.386-1.276l6.215-9.322v78.549L163.037,256.6z M166.763,272.523H154.54l6.111-9.174L166.763,272.523z
		 M160.651,189.964l-6.111-9.174h12.223L160.651,189.964z M166.385,175.057V163.59c-0.007-5.725,2.839-11.077,7.59-14.274
		c4.749-3.195,10.779-3.815,16.08-1.653c-4.147,4.266-6.47,9.979-6.47,15.928v11.467L166.385,175.057L166.385,175.057z
		 M189.318,163.59c0.003-4.882,2.088-9.532,5.733-12.782c3.645,3.25,5.73,7.9,5.733,12.782v11.467h-11.467L189.318,163.59
		L189.318,163.59z"/>
	<path d="M237.766,144.805c0.192-0.399,0.291-0.838,0.286-1.281v-20.066h11.468v20.066c-0.006,0.443,0.094,0.882,0.287,1.281
		l17.198,34.399l5.132-2.562l-16.885-33.795v-33.725c0-1.583-1.284-2.866-2.867-2.866h-17.199c-1.584,0-2.867,1.283-2.867,2.866
		v33.725l-16.898,33.795c-0.198,0.397-0.301,0.836-0.301,1.281v97.468c0,1.582,1.284,2.865,2.867,2.865h20.066v-5.732h-17.2V178.6
		L237.766,144.805z M249.52,111.99v5.733h-11.468v-5.733H249.52z"/>
	<path d="M317.914,216.589l-11.063-19.358v-10.707c0-1.583-1.282-2.866-2.865-2.866h-45.867c-1.583,0-2.866,1.283-2.866,2.866
		v10.707l-11.089,19.393c-0.251,0.436-0.381,0.932-0.378,1.434v57.334c0,1.582,1.283,2.865,2.865,2.865h68.801
		c1.584,0,2.867-1.283,2.867-2.865v-57.334C318.319,217.54,318.18,217.032,317.914,216.589z M310.512,215.19h-13.054l6.527-11.421
		L310.512,215.19z M260.984,189.391h40.134v5.732h-40.134V189.391z M259.781,200.856h39.271l-8.197,14.334h-39.272L259.781,200.856z
		 M289.65,272.523h-40.133v-51.601h40.133V272.523z M312.585,272.523h-17.2v-51.601h17.2V272.523z"/>
</g>
</svg>
