<?xml version="1.0" encoding="utf-8"?>
<!-- Generator: Adobe Illustrator 16.0.0, SVG Export Plug-In . SVG Version: 6.00 Build 0)  -->
<!DOCTYPE svg PUBLIC "-//W3C//DTD SVG 1.1//EN" "http://www.w3.org/Graphics/SVG/1.1/DTD/svg11.dtd">
<svg version="1.1" id="Capa_1" xmlns="http://www.w3.org/2000/svg" xmlns:xlink="http://www.w3.org/1999/xlink" x="0px" y="0px"
	 width="336px" height="143px" viewBox="78.5 142 336 143" enable-background="new 78.5 142 336 143" xml:space="preserve">
<path fill="#EEEEEE" d="M386.5,212.75c0,28.719-20.946,52-46.783,52H146.284c-25.838,0-46.784-23.281-46.784-52l0,0
	c0-28.719,20.946-52,46.784-52h193.433C365.554,160.75,386.5,184.031,386.5,212.75L386.5,212.75z"/>
<path fill="#354D90" d="M367.5,212.75c0,2.071-1.871,3.75-4.182,3.75H121.348c-2.309,0-4.181-1.679-4.181-3.75l0,0
	c0-2.071,1.872-3.75,4.181-3.75h241.971C365.629,209,367.5,210.679,367.5,212.75L367.5,212.75z"/>
</svg>
