<?xml version="1.0" encoding="utf-8"?>
<!-- Generator: Adobe Illustrator 16.0.0, SVG Export Plug-In . SVG Version: 6.00 Build 0)  -->
<!DOCTYPE svg PUBLIC "-//W3C//DTD SVG 1.1//EN" "http://www.w3.org/Graphics/SVG/1.1/DTD/svg11.dtd">
<svg version="1.1" id="Capa_1" xmlns="http://www.w3.org/2000/svg" xmlns:xlink="http://www.w3.org/1999/xlink" x="0px" y="0px"
	 width="512px" height="512px" viewBox="0 0 512 512" enable-background="new 0 0 512 512" xml:space="preserve">
<circle fill="#354D90" cx="252.853" cy="263.344" r="209.794"/>
<g>
	<g>
		<g>
			<path fill="#FFFFFF" d="M223.322,175.997c-68.685,0-124.359,42.817-124.359,95.66c0,25.904,13.412,49.457,35.184,66.676
				c-1.263,17.563-5.491,39.048-17.735,50.623c24.374,0,49.284-15.268,65.03-27.206c13.086,3.598,27.168,5.568,41.88,5.568
				c68.685,0,124.358-42.799,124.358-95.661C347.681,218.814,292.007,175.997,223.322,175.997z"/>
			<path fill="#FFFFFF" d="M388.624,280.975c10.465-13.986,16.453-30.248,16.453-47.582c0-52.843-55.675-95.66-124.359-95.66
				c-30.228,0-57.931,8.304-79.474,22.078c10.14-1.913,20.739-2.946,31.645-2.946c73.965,0,133.924,47.122,133.924,105.228
				c0,22.9-9.279,44.118-25.101,61.356c15.707,11.938,40.655,27.243,65.029,27.243C389.408,334.238,388.164,297.772,388.624,280.975
				z"/>
		</g>
	</g>
</g>
</svg>
