<?xml version="1.0" encoding="utf-8"?>
<!-- Generator: Adobe Illustrator 16.0.0, SVG Export Plug-In . SVG Version: 6.00 Build 0)  -->
<!DOCTYPE svg PUBLIC "-//W3C//DTD SVG 1.1//EN" "http://www.w3.org/Graphics/SVG/1.1/DTD/svg11.dtd">
<svg version="1.1" id="Layer_1" xmlns="http://www.w3.org/2000/svg" xmlns:xlink="http://www.w3.org/1999/xlink" x="0px" y="0px"
	 width="400px" height="400px" viewBox="159.836 99.088 400 400" enable-background="new 159.836 99.088 400 400"
	 xml:space="preserve">
<g display="none">
	<path display="inline" fill="#FDBF00" d="M406.125,165.555c0,12.035-7.775,22.404-18.516,26.107v10.924
		c0,5.186-4.072,9.258-9.258,9.258s-9.258-4.072-9.258-9.258V184.07c0-5.186,4.072-9.258,9.258-9.258s9.258-4.072,9.258-9.258
		s-4.072-9.258-9.258-9.258s-9.258,4.072-9.258,9.258s-4.072,9.258-9.258,9.258s-9.258-4.072-9.258-9.258
		c0-15.369,12.404-27.773,27.773-27.773S406.125,150.186,406.125,165.555z"/>
	<path display="inline" fill="#FDBF00" d="M434.824,230.729c-1.666,3.334-4.998,5.186-8.332,5.186c-1.48,0-2.777-0.371-4.072-0.926
		l-44.068-22.033l-44.066,22.033c-4.445,2.223-9.998,0.369-12.406-4.26c-2.221-4.443-0.371-9.998,4.258-12.404l48.143-24.07
		c1.295-0.555,2.592-0.926,4.072-0.926s2.777,0.371,4.072,0.926l48.143,24.07C435.195,220.73,437.045,226.285,434.824,230.729z"/>
	<path display="inline" fill="#FF9F00" d="M406.125,165.555c0,12.035-7.775,22.404-18.516,26.107v10.924
		c0,5.186-4.072,9.258-9.258,9.258v-37.031c5.186,0,9.258-4.072,9.258-9.258s-4.072-9.258-9.258-9.258v-18.516
		C393.721,137.781,406.125,150.186,406.125,165.555z"/>
	<path display="inline" fill="#FF9F00" d="M434.824,230.729c-1.666,3.334-4.998,5.186-8.332,5.186c-1.48,0-2.777-0.371-4.072-0.926
		l-44.068-22.033v-19.627c1.482,0,2.777,0.371,4.072,0.926l48.143,24.07C435.195,220.73,437.045,226.285,434.824,230.729z"/>
	<path display="inline" fill="#A8D32A" d="M517.836,221.102v74.68c0,5.184-4.072,9.258-9.258,9.258h-27.773v139.484
		c0,5.184-4.072,9.258-9.258,9.258h-83.938L275.898,342.688v-37.648h-27.773c-5.186,0-9.258-4.074-9.258-9.258v-74.68
		c0-5.186,4.072-9.258,9.258-9.258h74.68c5,0,9.258,4.072,9.258,9.072c-0.186,25.553,20.738,46.475,46.289,46.475
		s46.475-20.922,46.289-46.475c0-5,4.258-9.072,9.258-9.072h74.68C513.764,211.844,517.836,215.916,517.836,221.102z"/>
	<path display="inline" fill="#93BF00" d="M517.836,221.102v74.68c0,5.184-4.072,9.258-9.258,9.258h-27.773v139.484
		c0,5.184-4.072,9.258-9.258,9.258h-83.938l-9.258-9.258V267.391c25.551,0,46.475-20.922,46.289-46.475c0-5,4.258-9.072,9.258-9.072
		h74.68C513.764,211.844,517.836,215.916,517.836,221.102z"/>
	<path display="inline" fill="#FFCEBF" d="M406.125,435.266c0,10.184-8.332,18.516-18.516,18.516H220.352
		c-10.184,0-18.516-8.332-18.516-18.516s8.332-18.516,18.516-18.516l83.938-18.516l83.32,18.516
		C397.793,416.75,406.125,425.082,406.125,435.266z"/>
	<path display="inline" fill="#FFBFAB" d="M406.125,435.266c0,10.184-8.332,18.516-18.516,18.516h-83.32v-55.547l83.32,18.516
		C397.793,416.75,406.125,425.082,406.125,435.266z"/>
	<path display="inline" fill="#FFA78F" d="M406.125,398.234c0,10.184-8.332,18.516-18.516,18.516H220.352
		c-10.184,0-18.516-8.332-18.516-18.516s8.332-18.516,18.516-18.516l83.938-18.516l83.32,18.516
		C397.793,379.719,406.125,388.051,406.125,398.234z"/>
	<path display="inline" fill="#F89580" d="M406.125,398.234c0,10.184-8.332,18.516-18.516,18.516h-83.32v-55.547l83.32,18.516
		C397.793,379.719,406.125,388.051,406.125,398.234z"/>
	<path display="inline" fill="#FFCEBF" d="M406.125,361.203c0,10.184-8.332,18.516-18.516,18.516H220.352
		c-10.184,0-18.516-8.332-18.516-18.516s8.332-18.516,18.516-18.516h167.258C397.793,342.688,406.125,351.02,406.125,361.203z"/>
	<path display="inline" fill="#FFBFAB" d="M406.125,361.203c0,10.184-8.332,18.516-18.516,18.516h-83.32v-37.031h83.32
		C397.793,342.688,406.125,351.02,406.125,361.203z"/>
</g>
<g display="none">
	<path display="inline" fill="#436B1C" d="M279.568,269.865c-1.842,0-3.644-0.899-4.683-2.529
		c-3.376-5.288-9.681-11.405-16.919-11.182c-3.079-0.159-5.574-2.221-5.662-5.149c-0.095-2.938,2.292-5.389,5.326-5.479
		c11.583-0.334,21.459,8.152,26.611,16.234c1.593,2.498,0.791,5.772-1.792,7.313C281.553,269.608,280.552,269.865,279.568,269.865z"
		/>
	<g display="inline">
		<path fill="#88C057" d="M392.073,199.103c-0.738-10.353-9.637-18.536-20.53-18.536c-0.033,0-0.063,0.006-0.094,0.006
			c0.192-1.569,0.082-3.226-0.44-4.953c-1.473-4.858-5.893-8.587-11.093-9.188c-4.265-0.49-8.18,0.987-10.923,3.607
			c-2.61-2.279-6.03-3.705-9.822-3.705c-8.13,0-14.715,6.373-14.715,14.228c0,0.025,0.007,0.047,0.007,0.074
			c-9.879,0.723-17.668,8.688-17.668,18.423c0,1.487,0.202,2.927,0.544,4.315c-11.759,0.472-21.146,9.814-21.146,21.297
			c0,3.89,1.094,7.526,2.975,10.665c-3.613,2.87-5.921,7.222-5.921,12.095c0,4.454,1.951,8.444,5.041,11.289
			c13.257-10.475,27.187,24.555,43.59,52.524c5.448,9.287,64.302-0.606,68.99,5.163c5.344-4.643,8.796-85.523,8.944-92.628
			C410.042,212.382,402.556,202.659,392.073,199.103z"/>
	</g>
	<path display="inline" fill="#EEAF4B" d="M399.599,305.043l3.92-2.269c7.255-4.209,16.314-4.209,23.565,0l3.918,2.269
		c7.256,4.209,16.315,4.209,23.565,0l11.076-4.761c1.627-4.39,2.759-7.568,3.209-8.977c10.335-32.133,16.99-65.968,17.899-99.716
		c0.363-13.573-11.247-34.739-30.536-25.12c-18.959,9.448-32.535,45.685-42.077,62.891c-13.558,24.451-24.274,51.042-31.911,78.138
		C388.045,308.917,394.299,308.115,399.599,305.043z"/>
	<path display="inline" fill="#ED3F32" d="M256.69,299.585l7.394,4.29c8.493,4.925,19.102,4.925,27.594,0l1.902-1.106
		c7.256-4.208,16.314-4.208,23.565,0l3.919,2.27c4.261,2.471,9.142,3.448,13.913,3.019c3.517-10.984,2.336-24.716-3.117-34.01
		c-18.338-31.273-33.591-24.902-48.269-11.326c-2.813,2.605-6.255,4.513-10.005,5.549c-16.095,4.448-27.973,11.723-21.218,31.534
		C253.563,298.965,255.224,298.735,256.69,299.585z"/>
	<path display="inline" fill="#A46F3E" d="M413.554,293.475c-0.581,0-1.181-0.09-1.764-0.282c-2.875-0.944-4.414-3.963-3.435-6.742
		c3.666-10.427,15.44-16.007,26.209-12.5c5.052,1.664,10.554-0.962,12.268-5.845c0.975-2.779,4.085-4.277,6.978-3.327
		c2.875,0.947,4.414,3.966,3.434,6.743c-3.66,10.433-15.423,16.033-26.208,12.499c-5.046-1.658-10.549,0.974-12.269,5.847
		C417.979,292.087,415.842,293.475,413.554,293.475z"/>
	<path display="inline" fill="#A46F3E" d="M426.554,256.452c-0.583,0-1.18-0.091-1.763-0.281c-2.875-0.947-4.413-3.965-3.437-6.744
		c1.775-5.054,5.481-9.139,10.429-11.5c4.947-2.359,10.548-2.714,15.781-0.999c5.062,1.67,10.553-0.962,12.269-5.85
		c0.974-2.784,4.097-4.277,6.97-3.328c2.875,0.948,4.414,3.967,3.436,6.744c-3.661,10.437-15.424,16.028-26.209,12.505
		c-2.445-0.808-5.073-0.643-7.388,0.462c-2.313,1.105-4.046,3.012-4.882,5.383C430.985,255.06,428.846,256.452,426.554,256.452z"/>
	<path display="inline" fill="#A46F3E" d="M439.561,219.423c-0.582,0-1.184-0.091-1.771-0.282c-2.875-0.945-4.413-3.963-3.435-6.743
		c3.21-9.151,13.539-14.061,23.004-10.969c1.814,0.595,3.75,0.479,5.458-0.334c1.709-0.813,2.991-2.226,3.607-3.976
		c0.971-2.779,4.089-4.271,6.974-3.326c2.875,0.944,4.415,3.964,3.438,6.742c-1.563,4.438-4.812,8.025-9.153,10.092
		c-4.348,2.072-9.269,2.375-13.859,0.871c-3.725-1.227-7.793,0.712-9.057,4.32C443.987,218.032,441.848,219.423,439.561,219.423z"/>
	<g display="inline">
		<path fill="#DAE7EF" d="M346.371,238.947c-5.194,6.68-13.389,14.587-10.234,28.553l8.486,37.543h0.006l3.919-2.269
			c7.257-4.209,16.315-4.209,23.565,0l3.92,2.269c3.188,1.851,6.194,2.46,6.194,2.46c5.728-20.316,13.187-40.349,22.273-59.405
			c-4.255-10.288-13.341-13.73-19.937-17.255c-0.038-0.021-0.077-0.042-0.11-0.057c-4.171-2.313-4.431-7.833-1.29-11.351
			c1.235-1.388,1.807-3.294,1.379-5.208l-0.666-2.933c-0.731-3.232-4.063-5.293-7.399-4.586l-33.403,7.047
			c-3.343,0.707-5.475,3.927-4.745,7.152l0.666,2.933c0.439,1.957,1.837,3.47,3.606,4.21c4.062,1.696,6.542,6.08,4.464,9.857
			C346.866,238.262,346.636,238.608,346.371,238.947z"/>
	</g>
	<path display="inline" fill="#FFFFFF" d="M381.42,221.964l-37.813,7.986c-4.173,0.881-8.339-1.7-9.252-5.734l-0.544-2.401
		c-0.912-4.034,1.76-8.062,5.932-8.944l37.812-7.988c4.173-0.881,8.34,1.701,9.252,5.736l0.545,2.401
		C388.264,217.059,385.592,221.082,381.42,221.964z"/>
	<path display="inline" fill="#FBD490" d="M475.253,298.66l-9.594,133.006c-0.703,13.281-12.045,23.695-25.796,23.695H285.561
		c-13.754,0-25.093-10.414-25.797-23.695l-9.362-128.642c-0.158-3.024,3.232-4.996,5.92-3.439l7.396,4.29
		c8.491,4.925,19.101,4.925,27.594,0l1.9-1.106c7.257-4.208,16.316-4.208,23.564,0l3.92,2.274c7.258,4.209,16.315,4.209,23.565,0
		l3.92-2.274c7.256-4.208,16.314-4.208,23.565,0l3.92,2.274c7.256,4.209,16.313,4.209,23.565,0l3.918-2.274
		c7.255-4.208,16.315-4.208,23.564,0l3.92,2.274c7.256,4.209,16.314,4.209,23.563,0l18.618-7.997
		C473.999,296.535,475.317,297.411,475.253,298.66z"/>
	<path display="inline" fill="#E0B877" d="M316.358,387.235h-38.478c-3.034,0-5.497-2.375-5.497-5.314
		c0-2.938,2.463-5.313,5.497-5.313h38.478c3.035,0,5.496,2.375,5.496,5.313C321.854,384.86,319.394,387.235,316.358,387.235z"/>
	<path display="inline" fill="#E0B877" d="M327.352,408.491h-49.471c-3.034,0-5.497-2.375-5.497-5.314
		c0-2.938,2.463-5.313,5.497-5.313h49.471c3.035,0,5.497,2.375,5.497,5.313C332.849,406.116,330.387,408.491,327.352,408.491z"/>
	<path display="inline" fill="#E0B877" d="M338.346,429.747h-60.465c-3.034,0-5.497-2.376-5.497-5.314s2.463-5.314,5.497-5.314
		h60.465c3.034,0,5.497,2.376,5.497,5.314S341.38,429.747,338.346,429.747z"/>
	<path display="inline" fill="#E0B877" d="M371.328,429.747h-10.994c-3.033,0-5.497-2.376-5.497-5.314s2.464-5.314,5.497-5.314
		h10.994c3.034,0,5.497,2.376,5.497,5.314S374.362,429.747,371.328,429.747z"/>
</g>
<g>
	<rect x="420.946" y="179.515" fill="#695A69" width="24.158" height="24.158"/>
	<path fill="#F2D057" d="M219.632,292.251v128.842h112.735v-96.631h64.422v96.631h112.735V292.251H364.578H219.632z M308.21,324.462
		v16.104v8.054v32.21v8.054h-8.053h-40.265h-8.051v-8.054v-32.21v-8.054v-16.104v-8.053h8.053h40.263h8.053V324.462L308.21,324.462z
		 M420.946,380.83v-32.21v-8.054v-16.104v-8.053h8.053h40.265h8.052v8.053v16.104v8.054v32.21v8.054h-8.052h-40.265h-8.053V380.83z"
		/>
	<polygon fill="#BF515A" points="477.314,203.672 445.104,203.672 420.946,203.672 364.578,203.672 251.842,203.672 
		211.578,292.251 219.632,292.251 364.578,292.251 509.524,292.251 517.578,292.251 	"/>
	<polygon fill="#95FFFF" points="259.893,380.83 292.104,380.83 259.893,348.62 	"/>
	<polygon fill="#80D7F0" points="292.104,380.83 300.157,380.83 300.157,348.62 259.893,348.62 	"/>
	<rect x="259.893" y="324.462" fill="#6EB1E2" width="40.265" height="16.104"/>
	<path fill="#695A69" d="M259.893,316.409h-8.051v8.053v16.104v8.054v32.21v8.054h8.053h40.263h8.053v-8.054v-32.21v-8.054v-16.104
		v-8.053h-8.053H259.893z M300.157,380.83h-8.054h-32.211v-32.21h40.265V380.83z M300.157,340.566h-40.265v-16.104h40.265V340.566z"
		/>
	<polygon fill="#95FFFF" points="428.999,348.62 428.999,380.83 461.21,380.83 	"/>
	<polygon fill="#80D7F0" points="469.264,380.83 469.264,348.62 428.999,348.62 461.21,380.83 	"/>
	<rect x="428.999" y="324.462" fill="#6EB1E2" width="40.265" height="16.104"/>
	<path fill="#695A69" d="M469.264,388.883h8.052v-8.053v-32.21v-8.054v-16.104v-8.053h-8.052h-40.265h-8.053v8.053v16.104v8.054
		v32.21v8.054h8.053L469.264,388.883L469.264,388.883z M428.999,324.462h40.265v16.104h-40.265V324.462z M428.999,348.62h40.265
		v32.21h-8.054h-32.211V348.62z"/>
	<polygon fill="#944851" points="396.789,324.462 332.367,324.462 332.367,421.093 332.367,453.304 396.789,453.304 
		396.789,421.093 	"/>
	<rect x="219.632" y="421.093" fill="#E9A868" width="112.735" height="32.21"/>
	<rect x="396.789" y="421.093" fill="#E9A868" width="112.735" height="32.21"/>
</g>
<g display="none">
	<path display="inline" fill="#64798A" d="M501.79,450.635h-75.731c-8.114,0-14.691-6.577-14.691-14.691v-192.49
		c0-8.113,6.577-14.691,14.691-14.691h75.731c8.113,0,14.691,6.578,14.691,14.691v192.49
		C516.481,444.06,509.903,450.635,501.79,450.635z"/>
	<g display="inline">
		<rect x="428.385" y="412.435" fill="#D5D6DB" width="71.087" height="17.395"/>
		<rect x="428.385" y="380.981" fill="#D5D6DB" width="71.087" height="17.395"/>
		<rect x="428.385" y="349.97" fill="#D5D6DB" width="71.087" height="17.394"/>
		<circle fill="#D5D6DB" cx="463.935" cy="266.572" r="14.319"/>
	</g>
	<rect x="295.728" y="418.971" display="inline" fill="#DC8744" width="64.081" height="20.316"/>
	<path display="inline" fill="#3A556A" d="M442.351,256.68c0-3.53-2.863-6.394-6.393-6.394H219.572c-3.53,0-6.392,2.863-6.392,6.394
		v132.995h229.17V256.68z"/>
	<rect x="225.68" y="262.788" display="inline" fill="#27A2DB" width="204.172" height="126.887"/>
	<path display="inline" fill="#3A556A" d="M213.18,389.675v25.062c0,3.531,2.862,6.392,6.392,6.392h216.386
		c3.529,0,6.393-2.86,6.393-6.392v-25.062H213.18z"/>
	<circle display="inline" fill="#D5D6DB" cx="327.752" cy="405.397" r="8.69"/>
	<path display="inline" fill="#2F4859" d="M367.576,437.824h-79.622c-8.033,0-14.546,6.512-14.546,14.547l0,0h108.715l0,0
		C382.123,444.336,375.609,437.824,367.576,437.824z"/>
</g>
<g display="none">
	<path display="inline" fill="#53433F" d="M457.282,453.395c-36.936,0-66.993-30.056-66.993-66.992
		c0-36.936,30.058-66.993,66.993-66.993s67.631,30.058,67.631,66.993C524.913,423.339,494.218,453.395,457.282,453.395z
		 M457.282,338.551c-26.384,0-47.853,21.468-47.853,47.852c0,26.383,21.469,47.853,47.853,47.853c26.383,0,48.49-21.47,48.49-47.853
		C505.772,360.019,483.665,338.551,457.282,338.551z"/>
	<path display="inline" fill="#68544F" d="M265.874,453.395c-36.936,0-67.631-30.056-67.631-66.992
		c0-36.936,30.695-66.993,67.631-66.993c28.348,0,53.741,17.945,63.18,44.665l-18.057,6.374
		c-6.738-19.074-24.871-31.897-45.123-31.897c-26.383,0-48.49,21.468-48.49,47.852c0,26.383,22.107,47.853,48.49,47.853
		c20.252,0,38.385-12.823,45.123-31.899l18.057,6.376C319.615,435.45,294.222,453.395,265.874,453.395z"/>
	<path display="inline" fill="#53433F" d="M419,223.706l4.594,76.563h14.548c26.412,0,47.851-21.439,47.851-47.853v-28.711H419z"/>
	<path display="inline" fill="#FF637B" d="M459.004,365.155l-17.8,7.083l-24.691-63.164l-54.551,68.331l-0.384-0.382l-14.739-11.484
		l14.739-18.375l37.517-46.895h-88.432l-28.327,70.628l-17.611-7.272l29.86-74.841v-36.367h19.142v28.711h95.703v-86.133
		l19.141,9.57v84.219L459.004,365.155z"/>
	<path display="inline" fill="#E63950" d="M459.004,365.155l-17.8,7.083l-24.691-63.164l-54.551,68.331l-0.384-0.382v-29.859
		l37.517-46.895h-37.517v-19.142h47.852v-86.133l19.141,9.57v84.219L459.004,365.155z"/>
	<path display="inline" fill="#D3D3D8" d="M361.578,365.155c-4.977-4.596-11.677-7.464-19.141-7.464h-76.563
		c-15.888,0-29.349,12.822-29.349,28.711c0,15.886,13.461,28.711,29.349,28.711h76.563c7.464,0,14.164-2.871,19.141-7.465
		c5.934-5.169,9.57-12.825,9.57-21.246C371.148,377.98,367.512,370.324,361.578,365.155z"/>
	<path display="inline" fill="#BABAC0" d="M371.148,386.402c0,8.421-3.637,16.077-9.57,21.246v-42.493
		C367.512,370.324,371.148,377.98,371.148,386.402z"/>
	<path display="inline" fill="#BABAC0" d="M457.282,415.113c-15.831,0-28.712-12.88-28.712-28.711
		c0-15.832,12.881-28.711,28.712-28.711c15.83,0,28.71,12.879,28.71,28.711C485.992,402.233,473.112,415.113,457.282,415.113z"/>
	<path display="inline" fill="#53433F" d="M428.57,185.424h-57.422v19.141h57.422V185.424z"/>
	<path display="inline" fill="#68544F" d="M275.444,242.847h57.423v19.141h-57.423V242.847z"/>
</g>
<g display="none">
	<path display="inline" fill="#424244" d="M509.396,364.266c0,50.018-40.545,90.563-90.563,90.563H290.839
		c-50.015,0-90.562-40.545-90.562-90.563V236.272c0-50.016,40.546-90.562,90.562-90.562h127.994
		c50.018,0,90.563,40.546,90.563,90.562V364.266z"/>
	<rect x="315.801" y="232.845" display="inline" fill="#989898" width="156.021" height="21.157"/>
	<rect x="263.801" y="347.789" display="inline" fill="#989898" width="208.022" height="21.15"/>
	<rect x="405.063" y="292.711" display="inline" fill="#E2B942" width="66.761" height="21.15"/>
	<rect x="315.801" y="292.711" display="inline" fill="#E2B942" width="67.988" height="21.15"/>
	<g display="inline" enable-background="new    ">
		<path fill="#E2B942" d="M276.13,322.07h1.28c3.417-14.947,6.969-29.764,10.652-44.449c3.685-14.682,7.341-29.658,10.973-44.93
			h24.348l-33.479,136.313h-26.108l-34.759-136.313h24.507L276.13,322.07z"/>
	</g>
</g>
</svg>
