<?xml version="1.0" encoding="utf-8"?>
<!-- Generator: Adobe Illustrator 16.0.0, SVG Export Plug-In . SVG Version: 6.00 Build 0)  -->
<!DOCTYPE svg PUBLIC "-//W3C//DTD SVG 1.1//EN" "http://www.w3.org/Graphics/SVG/1.1/DTD/svg11.dtd">
<svg version="1.1" id="Layer_1" xmlns="http://www.w3.org/2000/svg" xmlns:xlink="http://www.w3.org/1999/xlink" x="0px" y="0px"
	 width="512px" height="512px" viewBox="0 0 512 512" enable-background="new 0 0 512 512" xml:space="preserve">
<g>
	<g>
		<path fill="#FFFFFF" d="M334.664,96.045c-66.055-66.055-173.564-66.055-239.619,0c-66.041,66.069-66.041,173.564,0,239.633
			c58.824,58.811,150.438,65.109,216.45,19.188c1.389,6.571,4.567,12.844,9.68,17.956l96.198,96.195
			c14.019,13.991,36.671,13.991,50.618,0c14.004-14.003,14.004-36.655,0-50.617l-96.197-96.227
			c-5.084-5.068-11.369-8.262-17.941-9.65C399.803,246.499,393.502,154.897,334.664,96.045z M304.293,305.309
			c-49.316,49.314-129.576,49.314-178.877,0c-49.287-49.315-49.287-129.562,0-178.876c49.301-49.302,129.561-49.302,178.877,0
			C353.608,175.747,353.608,255.992,304.293,305.309z"/>
	</g>
</g>
</svg>
