<?xml version="1.0" encoding="utf-8"?>
<!-- Generator: Adobe Illustrator 16.0.0, SVG Export Plug-In . SVG Version: 6.00 Build 0)  -->
<!DOCTYPE svg PUBLIC "-//W3C//DTD SVG 1.1//EN" "http://www.w3.org/Graphics/SVG/1.1/DTD/svg11.dtd">
<svg version="1.1" id="Capa_1" xmlns="http://www.w3.org/2000/svg" xmlns:xlink="http://www.w3.org/1999/xlink" x="0px" y="0px"
	 width="400px" height="400px" viewBox="-50 -50 400 400" enable-background="new -50 -50 400 400" xml:space="preserve">
<g display="none">
	<g display="inline">
		<path d="M288.546,55.635L104.811,16.812c-7.773-1.642-15.479,3.365-17.123,11.126l-3.491,22.397l212,44.793l3.49-22.397
			C301.332,64.973,296.319,57.277,288.546,55.635z"/>
		<path d="M211.28,99.879c-2.146-7.717-10.223-12.278-17.948-10.139l-34.88,9.668L76.225,82.033l-9.043,42.662L10.68,140.353
			c-7.726,2.14-12.294,10.204-10.151,17.917l31.842,114.565c2.146,7.714,10.223,12.277,17.949,10.136l182.652-50.609
			c7.726-2.142,12.294-10.204,10.151-17.92l-5.467-19.669l20.486,4.325c7.773,1.645,15.479-3.362,17.123-11.124l12.96-61.148
			l-73.788-15.59L211.28,99.879z M232.374,158.105l4.517-21.316c0.68-3.191,3.849-5.25,7.045-4.576l21.35,4.514
			c3.199,0.677,5.261,3.838,4.586,7.033l-4.518,21.316c-0.678,3.191-3.848,5.252-7.044,4.576l-21.349-4.511
			C233.758,164.462,231.695,161.297,232.374,158.105z M13.858,151.785l50.547-14L183.67,104.74l12.834-3.561
			c0.234-0.063,0.468-0.093,0.696-0.093c1.029,0,2.261,0.675,2.62,1.966l1.507,5.418l4.722,16.985L18.21,177.5l-6.228-22.4
			C11.592,153.694,12.451,152.175,13.858,151.785z M231.668,217.612c0.24,0.868-0.012,1.588-0.267,2.037
			c-0.252,0.45-0.738,1.037-1.608,1.276L47.144,271.534c-0.231,0.064-0.468,0.097-0.697,0.097c-1.029,0-2.26-0.678-2.62-1.969
			l-18.573-66.825l187.839-52.047l11.455,41.215L231.668,217.612z"/>
		<path d="M76.657,222.184c-0.876-3.146-4.166-5.004-7.317-4.132l-21.331,5.913c-3.149,0.872-5.012,4.159-4.136,7.307l5.918,21.295
			c0.876,3.146,4.166,5.004,7.318,4.128l21.331-5.908c3.151-0.872,5.012-4.16,4.139-7.308L76.657,222.184z"/>
	</g>
</g>
<g>
	<g>
		<g>
			<path d="M153.113-10.933c-16.349,0-29.6,13.252-29.6,29.6c0,16.348,13.251,29.6,29.6,29.6
				c16.341-0.016,29.584-13.259,29.599-29.6C182.712,2.319,169.461-10.933,153.113-10.933z M153.113,38.4
				c-10.898,0-19.733-8.835-19.733-19.733s8.835-19.734,19.733-19.734s19.731,8.835,19.731,19.734S164.012,38.4,153.113,38.4z"/>
		</g>
	</g>
	<g>
		<g>
			<path d="M172.845,53.201h-1.162l-1.042,0.518c-11.038,5.497-24.017,5.497-35.056,0l-1.041-0.518h-1.164
				c-13.616,0.016-24.651,11.05-24.667,24.666v29.6c0,8.174,6.626,14.8,14.801,14.8h59.199c8.176,0,14.801-6.626,14.801-14.8v-29.6
				C197.497,64.25,186.461,53.216,172.845,53.201z M187.646,107.467c0,2.725-2.209,4.934-4.934,4.934h-59.199
				c-2.725,0-4.934-2.209-4.934-4.934v-29.6c0.001-7.765,6.003-14.208,13.749-14.76c13.182,6.117,28.39,6.117,41.569,0
				c7.744,0.552,13.748,6.996,13.748,14.76V107.467z"/>
		</g>
	</g>
	<g>
		<g>
			<path d="M256.712,151.867c-16.347,0-29.599,13.251-29.599,29.6c0,16.348,13.252,29.6,29.599,29.6
				c16.35,0,29.601-13.252,29.601-29.6C286.296,165.126,273.055,151.883,256.712,151.867z M256.712,201.2
				c-10.898,0-19.731-8.834-19.731-19.733c0-10.897,8.833-19.733,19.731-19.733s19.734,8.836,19.734,19.733
				C276.446,192.366,267.61,201.2,256.712,201.2z"/>
		</g>
	</g>
	<g>
		<g>
			<path d="M276.446,216h-1.165l-1.04,0.494c-11.038,5.494-24.018,5.494-35.057,0L238.143,216h-1.162
				c-13.616,0.016-24.652,11.051-24.668,24.667v29.602c0,8.173,6.627,14.798,14.801,14.798h59.199
				c8.174,0,14.801-6.625,14.801-14.798v-29.602C301.096,227.051,290.063,216.016,276.446,216z M291.246,270.269
				c0,2.722-2.209,4.931-4.934,4.931h-59.199c-2.725,0-4.934-2.209-4.934-4.931v-29.602c0-7.766,6.004-14.209,13.748-14.762
				c13.183,6.118,28.389,6.118,41.568,0c7.747,0.553,13.748,6.996,13.75,14.762V270.269z"/>
		</g>
	</g>
	<g>
		<g>
			<path d="M49.513,151.867c-16.349,0-29.6,13.251-29.6,29.6c0,16.348,13.251,29.6,29.6,29.6c16.347,0,29.6-13.252,29.6-29.6
				C79.097,165.126,65.854,151.883,49.513,151.867z M49.513,201.2c-10.898,0-19.734-8.834-19.734-19.733
				c0-10.897,8.835-19.733,19.734-19.733c10.898,0,19.732,8.836,19.732,19.733C69.246,192.366,60.411,201.2,49.513,201.2z"/>
		</g>
	</g>
	<g>
		<g>
			<path d="M69.246,216h-1.164l-1.041,0.494c-11.039,5.494-24.017,5.494-35.056,0L30.944,216h-1.165
				c-13.615,0.016-24.65,11.051-24.667,24.667v29.602c0,8.173,6.626,14.798,14.8,14.798h59.2c8.173,0,14.799-6.625,14.799-14.798
				v-29.602C93.897,227.051,82.862,216.016,69.246,216z M84.046,270.269c0,2.722-2.209,4.931-4.934,4.931h-59.2
				c-2.725,0-4.933-2.209-4.933-4.931v-29.602c0.001-7.766,6.003-14.209,13.749-14.762c13.182,6.118,28.388,6.118,41.569,0
				c7.746,0.553,13.748,6.996,13.749,14.762V270.269z"/>
		</g>
	</g>
	<g>
		<g>
			<path d="M202.058,239.604c-0.002-0.006-0.004-0.011-0.007-0.017c-1.067-2.507-3.965-3.674-6.471-2.606l0,0
				c-22.277,9.336-47.018,11.041-70.365,4.845l4.619-1.356c2.616-0.766,4.115-3.506,3.349-6.122
				c-0.766-2.614-3.506-4.113-6.122-3.351l-19.734,5.788c-0.073,0-0.127,0.084-0.196,0.108c-0.458,0.17-0.887,0.409-1.274,0.705
				c-0.17,0.093-0.335,0.196-0.493,0.311c-0.52,0.466-0.933,1.037-1.208,1.679c-0.267,0.645-0.396,1.339-0.375,2.038
				c0.121,0.667,0.285,1.327,0.494,1.972c0.029,0.069,0,0.148,0.054,0.218l9.866,18.88c1.262,2.416,4.245,3.353,6.661,2.093
				c2.417-1.263,3.353-4.243,2.092-6.662l-4.017-7.675c26.526,7.973,55.004,6.424,80.506-4.382
				C201.945,245.008,203.119,242.112,202.058,239.604z"/>
		</g>
	</g>
	<g>
		<g>
			<path d="M284.867,118.779c-1.926-1.926-5.05-1.926-6.976,0l-6.981,6.98c-4.083-43.209-31.519-80.707-71.463-97.68
				c-2.509-1.068-5.405,0.098-6.474,2.605c-1.067,2.506,0.1,5.405,2.606,6.472c35.835,15.23,60.744,48.513,65.252,87.187
				l-5.565-5.564c-1.959-1.894-5.082-1.839-6.974,0.121c-1.847,1.911-1.847,4.942,0,6.854l14.798,14.801
				c1.924,1.928,5.05,1.933,6.979,0.008c0.002-0.002,0.007-0.006,0.009-0.008l14.8-14.801
				C286.801,123.826,286.796,120.703,284.867,118.779z"/>
		</g>
	</g>
	<g>
		<g>
			<path d="M113.504,31.785c-0.017-0.288-0.06-0.573-0.13-0.854c0-0.044-0.054-0.074-0.073-0.124c-0.021-0.049,0-0.083,0-0.123
				c-0.135-0.24-0.29-0.468-0.464-0.681c-0.16-0.289-0.348-0.562-0.562-0.814c-0.292-0.258-0.615-0.479-0.962-0.656
				c-0.173-0.147-0.359-0.282-0.553-0.4l-19.733-9.013c-2.521-1.035-5.403,0.169-6.438,2.69c-0.979,2.384,0.042,5.119,2.344,6.279
				l10.216,4.672c-38.463,20.585-62.464,60.68-62.437,104.306c0,2.725,2.209,4.934,4.934,4.934s4.934-2.209,4.934-4.934
				c-0.025-38.414,20.29-73.97,53.394-93.457l-3.567,7.454c-1.176,2.453-0.146,5.394,2.304,6.576
				c0.666,0.325,1.395,0.494,2.136,0.493c1.895-0.002,3.62-1.089,4.44-2.797l9.867-20.587c0-0.049,0-0.104,0.039-0.153
				c0.128-0.337,0.218-0.688,0.267-1.045c0.084-0.266,0.147-0.538,0.188-0.814C113.63,32.416,113.583,32.097,113.504,31.785z"/>
		</g>
	</g>
</g>
</svg>
