<?xml version="1.0" encoding="utf-8"?>
<!-- Generator: Adobe Illustrator 16.0.0, SVG Export Plug-In . SVG Version: 6.00 Build 0)  -->
<!DOCTYPE svg PUBLIC "-//W3C//DTD SVG 1.1//EN" "http://www.w3.org/Graphics/SVG/1.1/DTD/svg11.dtd">
<svg version="1.1" id="Layer_1" xmlns="http://www.w3.org/2000/svg" xmlns:xlink="http://www.w3.org/1999/xlink" x="0px" y="0px"
	 width="300px" height="300px" viewBox="0 0 300 300" enable-background="new 0 0 300 300" xml:space="preserve">
<circle fill="#4AACDE" cx="150.801" cy="150.678" r="135"/>
<g>
	<g>
		<g>
			<path fill="#FFFFFF" d="M150.801,42.012c-10.457,0-18.933,8.477-18.933,18.933c0,10.457,8.476,18.934,18.933,18.934
				c10.451-0.011,18.922-8.481,18.932-18.934C169.732,50.489,161.256,42.012,150.801,42.012z M150.801,73.567
				c-6.972,0-12.622-5.651-12.622-12.622s5.65-12.622,12.622-12.622c6.971,0,12.621,5.651,12.621,12.622
				S157.771,73.567,150.801,73.567z"/>
		</g>
	</g>
	<g>
		<g>
			<path fill="#FFFFFF" d="M163.422,83.034h-0.744l-0.666,0.332c-7.061,3.515-15.362,3.515-22.423,0l-0.666-0.332h-0.744
				c-8.709,0.01-15.768,7.069-15.778,15.777v18.934c0,5.228,4.238,9.467,9.467,9.467h37.865c5.229,0,9.469-4.239,9.469-9.467V98.812
				C179.189,90.103,172.131,83.044,163.422,83.034z M172.889,117.745c0,1.743-1.412,3.155-3.156,3.155h-37.865
				c-1.743,0-3.156-1.413-3.156-3.155V98.812c0.001-4.966,3.84-9.089,8.795-9.441c8.431,3.913,18.158,3.913,26.587,0
				c4.955,0.353,8.795,4.475,8.795,9.441V117.745z"/>
		</g>
	</g>
	<g>
		<g>
			<path fill="#FFFFFF" d="M217.066,146.146c-10.457,0-18.934,8.476-18.934,18.933s8.477,18.933,18.934,18.933
				S236,175.535,236,165.078C235.988,154.626,227.52,146.155,217.066,146.146z M217.066,177.7c-6.971,0-12.621-5.652-12.621-12.622
				c0-6.971,5.65-12.623,12.621-12.623s12.623,5.652,12.623,12.623C229.689,172.048,224.037,177.7,217.066,177.7z"/>
		</g>
	</g>
	<g>
		<g>
			<path fill="#FFFFFF" d="M229.689,187.167h-0.746l-0.666,0.315c-7.061,3.516-15.361,3.516-22.422,0l-0.666-0.315h-0.744
				c-8.711,0.01-15.768,7.068-15.779,15.778v18.933c0,5.229,4.238,9.467,9.467,9.467H236c5.229,0,9.467-4.238,9.467-9.467v-18.933
				C245.457,194.235,238.398,187.177,229.689,187.167z M239.154,221.878c0,1.743-1.412,3.154-3.154,3.154h-37.867
				c-1.742,0-3.154-1.411-3.154-3.154v-18.933c0-4.967,3.84-9.089,8.793-9.443c8.432,3.915,18.158,3.915,26.59,0
				c4.955,0.354,8.793,4.477,8.793,9.443V221.878z"/>
		</g>
	</g>
	<g>
		<g>
			<path fill="#FFFFFF" d="M84.534,146.146c-10.457,0-18.934,8.476-18.934,18.933s8.477,18.933,18.934,18.933
				c10.457,0,18.933-8.476,18.933-18.933C103.457,154.626,94.987,146.155,84.534,146.146z M84.534,177.7
				c-6.971,0-12.622-5.652-12.622-12.622c0-6.971,5.651-12.623,12.622-12.623s12.622,5.652,12.622,12.623
				C97.156,172.048,91.505,177.7,84.534,177.7z"/>
		</g>
	</g>
	<g>
		<g>
			<path fill="#FFFFFF" d="M97.156,187.167h-0.745l-0.666,0.315c-7.062,3.516-15.363,3.516-22.424,0l-0.666-0.315h-0.745
				c-8.709,0.01-15.768,7.068-15.778,15.778v18.933c0,5.229,4.238,9.467,9.466,9.467h37.867c5.229,0,9.466-4.238,9.466-9.467
				v-18.933C112.924,194.235,105.866,187.177,97.156,187.167z M106.623,221.878c0,1.743-1.413,3.154-3.155,3.154H65.601
				c-1.743,0-3.155-1.411-3.155-3.154v-18.933c0.001-4.967,3.84-9.089,8.794-9.443c8.431,3.915,18.157,3.915,26.589,0
				c4.955,0.354,8.793,4.477,8.794,9.443V221.878z"/>
		</g>
	</g>
	<g>
		<g>
			<path fill="#FFFFFF" d="M182.107,202.266c0-0.005-0.002-0.009-0.004-0.012c-0.684-1.604-2.537-2.35-4.141-1.666l0,0
				c-14.248,5.972-30.074,7.061-45.007,3.098l2.954-0.867c1.673-0.489,2.632-2.242,2.143-3.916
				c-0.491-1.673-2.243-2.632-3.917-2.142l-12.623,3.7c-0.046,0-0.082,0.054-0.126,0.07c-0.292,0.108-0.566,0.261-0.813,0.451
				c-0.11,0.059-0.215,0.125-0.316,0.198c-0.333,0.298-0.597,0.662-0.773,1.073c-0.171,0.412-0.253,0.856-0.24,1.303
				c0.077,0.428,0.182,0.849,0.315,1.262c0.02,0.045,0,0.095,0.035,0.141l6.312,12.076c0.807,1.545,2.714,2.144,4.259,1.336
				c1.545-0.807,2.146-2.713,1.338-4.259l-2.569-4.91c16.966,5.1,35.183,4.108,51.496-2.802
				C182.035,205.721,182.787,203.869,182.107,202.266z"/>
		</g>
	</g>
	<g>
		<g>
			<path fill="#FFFFFF" d="M235.074,124.98c-1.23-1.232-3.229-1.232-4.461,0l-4.465,4.465c-2.613-27.639-20.16-51.623-45.711-62.479
				c-1.604-0.683-3.457,0.063-4.141,1.666c-0.684,1.604,0.063,3.457,1.666,4.14c22.922,9.741,38.854,31.031,41.738,55.768
				l-3.559-3.56c-1.254-1.211-3.252-1.176-4.463,0.078c-1.18,1.223-1.18,3.161,0,4.385l9.467,9.467
				c1.23,1.233,3.229,1.236,4.463,0.005c0.002-0.001,0.004-0.004,0.006-0.005l9.467-9.467
				C236.311,128.209,236.309,126.212,235.074,124.98z"/>
		</g>
	</g>
	<g>
		<g>
			<path fill="#FFFFFF" d="M125.464,69.335c-0.01-0.184-0.038-0.367-0.082-0.545c0-0.028-0.035-0.048-0.047-0.079
				c-0.013-0.032,0-0.054,0-0.079c-0.087-0.154-0.186-0.299-0.297-0.436c-0.102-0.185-0.222-0.359-0.359-0.521
				c-0.188-0.165-0.394-0.306-0.616-0.419c-0.111-0.094-0.229-0.18-0.354-0.256l-12.623-5.765c-1.611-0.662-3.455,0.108-4.117,1.72
				c-0.626,1.525,0.026,3.274,1.499,4.016l6.535,2.988c-24.603,13.167-39.954,38.813-39.937,66.718c0,1.743,1.413,3.155,3.156,3.155
				s3.155-1.413,3.155-3.155c-0.016-24.571,12.978-47.314,34.152-59.778l-2.281,4.768c-0.752,1.568-0.093,3.45,1.474,4.206
				c0.425,0.208,0.892,0.316,1.367,0.316c1.211-0.001,2.315-0.697,2.839-1.789l6.311-13.168c0-0.032,0-0.067,0.025-0.098
				c0.082-0.216,0.139-0.44,0.17-0.669c0.054-0.17,0.094-0.344,0.12-0.521C125.545,69.74,125.515,69.535,125.464,69.335z"/>
		</g>
	</g>
</g>
</svg>
