<?xml version="1.0" encoding="utf-8"?>
<!-- Generator: Adobe Illustrator 16.0.0, SVG Export Plug-In . SVG Version: 6.00 Build 0)  -->
<!DOCTYPE svg PUBLIC "-//W3C//DTD SVG 1.1//EN" "http://www.w3.org/Graphics/SVG/1.1/DTD/svg11.dtd">
<svg version="1.1" id="Capa_1" xmlns="http://www.w3.org/2000/svg" xmlns:xlink="http://www.w3.org/1999/xlink" x="0px" y="0px"
	 width="1920px" height="1248px" viewBox="0 -79.5 1920 1248" enable-background="new 0 -79.5 1920 1248" xml:space="preserve">
<g>
	<path d="M1666.45,518.469L1156.977,8.996C1144.98-3,1125.742-3,1113.747,8.996c-11.996,11.996-11.996,31.234,0,43.229
		l487.745,487.746l-487.745,487.746c-11.996,11.995-11.996,31.233,0,43.229c5.885,5.884,13.807,9.053,21.502,9.053
		s15.616-2.942,21.501-9.053l509.474-509.474C1678.22,549.703,1678.22,530.239,1666.45,518.469z"/>
</g>
<g>
	<path d="M269.367,561.529l509.474,509.475c11.996,11.994,31.234,11.994,43.229,0c11.996-11.996,11.996-31.234,0-43.23
		L334.325,540.028L822.07,52.282c11.996-11.995,11.996-31.233,0-43.229C816.186,3.168,808.264,0,800.568,0
		s-15.616,2.942-21.501,9.053L269.594,518.526C257.598,530.295,257.598,549.76,269.367,561.529z"/>
</g>
</svg>
