<?xml version="1.0" encoding="utf-8"?>
<!-- Generator: Adobe Illustrator 16.0.0, SVG Export Plug-In . SVG Version: 6.00 Build 0)  -->
<!DOCTYPE svg PUBLIC "-//W3C//DTD SVG 1.1//EN" "http://www.w3.org/Graphics/SVG/1.1/DTD/svg11.dtd">
<svg version="1.1" id="Layer_1" xmlns="http://www.w3.org/2000/svg" xmlns:xlink="http://www.w3.org/1999/xlink" x="0px" y="0px"
	 width="818.25px" height="599.5px" viewBox="0 0 818.25 599.5" enable-background="new 0 0 818.25 599.5" xml:space="preserve">
<rect x="-16.25" fill="#354D90" stroke="#000000" stroke-miterlimit="10" width="834.5" height="603.5"/>
<g>
	<g>
		<g>
			<path fill="#FFFFFF" d="M576.966,287.01H241.534c-8.141,0-14.74,6.599-14.74,14.74s6.6,14.74,14.74,14.74h335.432
				c8.142,0,14.74-6.599,14.74-14.74C591.706,293.609,585.107,287.01,576.966,287.01z"/>
		</g>
	</g>
	<g>
		<g>
			<path fill="#FFFFFF" d="M576.966,175.199H241.534c-8.141,0-14.74,6.6-14.74,14.741s6.6,14.74,14.74,14.74h335.432
				c8.142,0,14.74-6.6,14.74-14.74S585.107,175.199,576.966,175.199z"/>
		</g>
	</g>
	<g>
		<g>
			<path fill="#FFFFFF" d="M576.966,398.82H241.534c-8.141,0-14.74,6.599-14.74,14.74s6.6,14.74,14.74,14.74h335.432
				c8.142,0,14.74-6.599,14.74-14.74S585.107,398.82,576.966,398.82z"/>
		</g>
	</g>
</g>
</svg>
