<?xml version="1.0" encoding="utf-8"?>
<!-- Generator: Adobe Illustrator 16.0.0, SVG Export Plug-In . SVG Version: 6.00 Build 0)  -->
<!DOCTYPE svg PUBLIC "-//W3C//DTD SVG 1.1//EN" "http://www.w3.org/Graphics/SVG/1.1/DTD/svg11.dtd">
<svg version="1.1" id="Layer_1" xmlns="http://www.w3.org/2000/svg" xmlns:xlink="http://www.w3.org/1999/xlink" x="0px" y="0px"
	 width="512px" height="512px" viewBox="0 0 512 512" enable-background="new 0 0 512 512" xml:space="preserve">
<g>
	<path fill="#FFFFFF" d="M176.041,321.803H413.8c5.888,0,11.052-3.893,12.646-9.548l52.643-184.241
		c1.131-3.972,0.356-8.239-2.135-11.539c-2.495-3.29-6.374-5.233-10.515-5.233H145.66l-9.407-42.331
		c-1.337-6.028-6.683-10.309-12.852-10.309H43.564c-7.272,0-13.16,5.888-13.16,13.16c0,7.276,5.888,13.16,13.16,13.16h69.275
		l47.522,213.848c-13.982,6.08-23.801,19.997-23.801,36.193c0,21.769,17.711,39.479,39.48,39.479H413.8
		c7.275,0,13.159-5.884,13.159-13.16c0-7.271-5.884-13.159-13.159-13.159H176.041c-7.249,0-13.16-5.898-13.16-13.16
		S168.792,321.803,176.041,321.803z"/>
	<path fill="#FFFFFF" d="M162.881,413.922c0,21.772,17.711,39.48,39.483,39.48c21.769,0,39.48-17.708,39.48-39.48
		c0-21.769-17.711-39.479-39.48-39.479C180.592,374.442,162.881,392.153,162.881,413.922z"/>
	<path fill="#FFFFFF" d="M348,413.922c0,21.772,17.711,39.48,39.479,39.48c21.772,0,39.479-17.708,39.479-39.48
		c0-21.769-17.707-39.479-39.479-39.479C365.711,374.442,348,392.153,348,413.922z"/>
</g>
</svg>
