<?xml version="1.0" encoding="utf-8"?>
<!-- Generator: Adobe Illustrator 16.0.0, SVG Export Plug-In . SVG Version: 6.00 Build 0)  -->
<!DOCTYPE svg PUBLIC "-//W3C//DTD SVG 1.1//EN" "http://www.w3.org/Graphics/SVG/1.1/DTD/svg11.dtd">
<svg version="1.1" id="Layer_1" xmlns="http://www.w3.org/2000/svg" xmlns:xlink="http://www.w3.org/1999/xlink" x="0px" y="0px"
	 width="512px" height="512px" viewBox="0 0 512 512" enable-background="new 0 0 512 512" xml:space="preserve">
<g>
	<path fill="#CAD0D7" d="M337.33,75.897v38.593H182.958V75.897c0-3.552,2.877-6.433,6.433-6.433h141.507
		C334.453,69.464,337.33,72.345,337.33,75.897z"/>
	<path fill="#457393" d="M99.337,108.058h321.615c14.209,0,25.728,11.519,25.728,25.73v173.669
		c0,14.209-11.519,25.729-25.728,25.729H99.337c-14.208,0-25.728-11.52-25.728-25.729V133.788
		C73.609,119.576,85.128,108.058,99.337,108.058z"/>
	<path fill="#E4E8EB" d="M350.195,210.974V429.67c0,7.104-5.758,12.865-12.865,12.865H182.958c-7.107,0-12.865-5.762-12.865-12.865
		V210.974H350.195z"/>
	<path fill="#FFD67B" d="M414.52,162.732c0,12.433-10.082,22.514-22.515,22.514s-22.511-10.082-22.511-22.514
		s10.078-22.514,22.511-22.514S414.52,150.299,414.52,162.732z"/>
	<path fill="#A9B0BB" d="M240.847,403.941c-0.78,7.779-7.645,13.5-15.436,12.865h-20.584c-7.104,0-12.865-5.76-12.865-12.865
		c0-7.104,5.761-12.865,12.865-12.865h20.584C233.202,390.441,240.067,396.163,240.847,403.941z"/>
	<path fill="#9ED26A" d="M305.17,365.799v-19.298c7.654,1.48,12.865,5.405,12.865,9.005c0,3.553,2.881,6.433,6.433,6.433
		s6.431-2.88,6.431-6.433c0-11.063-10.871-20.069-25.729-22.061v-6.692c0-3.552-2.881-6.431-6.433-6.431s-6.433,2.879-6.433,6.431
		v6.885c-14.857,1.993-25.728,10.998-25.728,22.063c0,11.063,10.87,20.069,25.728,22.061v19.298
		c-7.653-1.48-12.862-5.405-12.862-9.005c0-3.553-2.881-6.433-6.433-6.433s-6.433,2.88-6.433,6.433
		c0,11.063,10.87,20.069,25.728,22.062v6.691c0,3.553,2.881,6.431,6.433,6.431s6.433-2.878,6.433-6.431v-6.885
		c14.857-1.992,25.729-10.998,25.729-22.063C330.898,376.797,320.027,367.79,305.17,365.799z M279.442,355.7
		c0-3.604,5.209-7.526,12.862-9.007v18.012C284.651,363.225,279.442,359.3,279.442,355.7z M305.17,396.866v-18.012
		c7.654,1.48,12.865,5.405,12.865,9.005C318.035,391.463,312.824,395.386,305.17,396.866z"/>
	<g>
		<path fill="#5E8FAA" d="M99.337,204.541c-3.552,0-6.43-2.88-6.43-6.433v-6.433c0-3.552,2.878-6.43,6.43-6.43
			c3.555,0,6.433,2.878,6.433,6.43v6.433C105.77,201.661,102.892,204.541,99.337,204.541z"/>
		<path fill="#5E8FAA" d="M99.337,172.381c-3.552,0-6.43-2.88-6.43-6.433V146.65c0-10.657,8.639-19.295,19.295-19.295h25.73
			c3.552,0,6.43,2.88,6.43,6.433c0,3.552-2.877,6.43-6.43,6.43h-25.73c-3.552,0-6.433,2.88-6.433,6.433v19.298
			C105.77,169.5,102.892,172.381,99.337,172.381z"/>
		<path fill="#5E8FAA" d="M170.093,140.218h-6.433c-3.552,0-6.433-2.878-6.433-6.43c0-3.553,2.88-6.433,6.433-6.433h6.433
			c3.552,0,6.433,2.88,6.433,6.433C176.526,137.34,173.646,140.218,170.093,140.218z"/>
		<path fill="#365972" d="M363.062,217.406H157.228c-3.552,0-6.433-2.88-6.433-6.433c0-3.552,2.88-6.433,6.433-6.433h205.833
			c3.552,0,6.433,2.881,6.433,6.433C369.494,214.526,366.613,217.406,363.062,217.406z"/>
		<path fill="#A9B0BB" d="M273.01,243.134h-77.188c-3.553,0-6.43-2.877-6.43-6.433c0-3.553,2.877-6.43,6.43-6.43h77.188
			c3.552,0,6.433,2.877,6.433,6.43C279.442,240.257,276.562,243.134,273.01,243.134z"/>
		<path fill="#A9B0BB" d="M305.17,268.865H195.821c-3.553,0-6.43-2.881-6.43-6.434c0-3.551,2.877-6.432,6.43-6.432H305.17
			c3.552,0,6.433,2.881,6.433,6.432C311.603,265.984,308.722,268.865,305.17,268.865z"/>
		<path fill="#A9B0BB" d="M305.17,294.592H195.821c-3.553,0-6.43-2.88-6.43-6.433c0-3.551,2.877-6.433,6.43-6.433H305.17
			c3.552,0,6.433,2.882,6.433,6.433C311.603,291.712,308.722,294.592,305.17,294.592z"/>
		<path fill="#A9B0BB" d="M266.577,320.322h-70.756c-3.553,0-6.43-2.88-6.43-6.433c0-3.551,2.877-6.433,6.43-6.433h70.756
			c3.552,0,6.433,2.882,6.433,6.433C273.01,317.442,270.129,320.322,266.577,320.322z"/>
		<path fill="#A9B0BB" d="M253.712,346.051h-57.891c-3.553,0-6.43-2.881-6.43-6.433s2.877-6.433,6.43-6.433h57.891
			c3.552,0,6.433,2.881,6.433,6.433S257.264,346.051,253.712,346.051z"/>
		<path fill="#A9B0BB" d="M208.687,371.781h-12.865c-3.553,0-6.43-2.881-6.43-6.433s2.877-6.433,6.43-6.433h12.865
			c3.552,0,6.433,2.881,6.433,6.433S212.238,371.781,208.687,371.781z"/>
	</g>
</g>
</svg>
