<?xml version="1.0" encoding="utf-8"?>
<!-- Generator: Adobe Illustrator 16.0.0, SVG Export Plug-In . SVG Version: 6.00 Build 0)  -->
<!DOCTYPE svg PUBLIC "-//W3C//DTD SVG 1.1//EN" "http://www.w3.org/Graphics/SVG/1.1/DTD/svg11.dtd">
<svg version="1.1" id="Layer_1" xmlns="http://www.w3.org/2000/svg" xmlns:xlink="http://www.w3.org/1999/xlink" x="0px" y="0px"
	 width="512px" height="512px" viewBox="0 0 512 512" enable-background="new 0 0 512 512" xml:space="preserve">
<g>
	<path fill="#A9B0BB" d="M311.862,385.039v62.686c0.012,1.34-0.763,2.561-1.983,3.115c-1.217,0.559-2.648,0.35-3.654-0.535
		l-21.596-18.541c-2.513-2.225-6.284-2.256-8.83-0.066l-22.888,19.627c-2.54,2.172-6.287,2.172-8.83,0l-22.819-19.561
		c-2.512-2.225-6.281-2.256-8.826-0.066l-22.888,19.627c-2.542,2.172-6.287,2.172-8.83,0l-22.888-19.627
		c-2.539-2.176-6.287-2.176-8.829,0l-21.665,18.607c-1.004,0.885-2.438,1.094-3.655,0.535c-1.217-0.555-1.992-1.775-1.98-3.115
		V243.573c-0.234-10.972,7.967-20.297,18.879-21.463c0.496-0.054,0.995-0.075,1.494-0.066h20.375L311.862,385.039z"/>
	<path fill="#CAD0D7" d="M216.782,222.043v162.996h-33.957c-11.255,0-20.376-9.123-20.376-20.375V242.416
		c0-5.401-2.148-10.582-5.978-14.396c-1.235-1.211-2.603-2.284-4.075-3.194c-3.104-1.836-6.647-2.798-10.254-2.783H216.782z"/>
	<path fill="#E4E8EB" d="M393.358,64.275v300.389c0,11.252-9.121,20.375-20.372,20.375H182.825c11.251,0,20.373-9.123,20.373-20.375
		V64.275c-0.012-1.337,0.766-2.56,1.983-3.116c1.217-0.559,2.648-0.349,3.654,0.535l21.596,18.542
		c2.512,2.224,6.284,2.254,8.829,0.069l22.888-19.627c2.54-2.176,6.287-2.176,8.83,0l22.818,19.558
		c2.514,2.224,6.281,2.254,8.83,0.069l22.885-19.627c2.543-2.176,6.287-2.176,8.83,0l22.888,19.627c2.539,2.173,6.287,2.173,8.829,0
		l21.665-18.612c1.004-0.883,2.438-1.094,3.654-0.535C392.596,61.715,393.371,62.938,393.358,64.275z"/>
	<g>
		<path fill="#457393" d="M237.154,120.17h67.916c3.75,0,6.792-3.041,6.792-6.792c0-3.75-3.042-6.792-6.792-6.792h-67.916
			c-3.75,0-6.789,3.041-6.789,6.792C230.365,117.129,233.404,120.17,237.154,120.17z"/>
		<path fill="#457393" d="M237.154,154.127h81.5c3.75,0,6.791-3.041,6.791-6.792c0-3.75-3.041-6.792-6.791-6.792h-81.5
			c-3.75,0-6.789,3.041-6.789,6.792C230.365,151.086,233.404,154.127,237.154,154.127z"/>
		<path fill="#457393" d="M345.818,154.127h13.584c3.75,0,6.792-3.041,6.792-6.792c0-3.75-3.042-6.792-6.792-6.792h-13.584
			c-3.751,0-6.792,3.041-6.792,6.792C339.026,151.086,342.067,154.127,345.818,154.127z"/>
		<path fill="#457393" d="M237.154,289.957h81.5c3.75,0,6.791-3.039,6.791-6.789c0-3.752-3.041-6.793-6.791-6.793h-81.5
			c-3.75,0-6.789,3.041-6.789,6.793C230.365,286.918,233.404,289.957,237.154,289.957z"/>
		<path fill="#457393" d="M359.402,276.375h-13.584c-3.751,0-6.792,3.041-6.792,6.793c0,3.75,3.041,6.789,6.792,6.789h13.584
			c3.75,0,6.792-3.039,6.792-6.789C366.194,279.416,363.152,276.375,359.402,276.375z"/>
		<path fill="#457393" d="M250.738,344.289h-13.584c-3.75,0-6.789,3.041-6.789,6.791s3.039,6.793,6.789,6.793h13.584
			c3.75,0,6.791-3.043,6.791-6.793S254.489,344.289,250.738,344.289z"/>
		<path fill="#457393" d="M359.402,174.503h-81.496c-3.751,0-6.793,3.041-6.793,6.792c0,3.751,3.042,6.792,6.793,6.792h81.496
			c3.75,0,6.792-3.041,6.792-6.792C366.194,177.544,363.152,174.503,359.402,174.503z"/>
		<path fill="#457393" d="M237.154,188.086h13.584c3.75,0,6.791-3.041,6.791-6.792c0-3.75-3.041-6.792-6.791-6.792h-13.584
			c-3.75,0-6.789,3.041-6.789,6.792C230.365,185.045,233.404,188.086,237.154,188.086z"/>
		<path fill="#457393" d="M359.402,208.459H237.154c-3.75,0-6.789,3.041-6.789,6.792c0,3.751,3.039,6.792,6.789,6.792h122.248
			c3.75,0,6.792-3.041,6.792-6.792C366.194,211.5,363.152,208.459,359.402,208.459z"/>
		<path fill="#457393" d="M359.402,310.332H237.154c-3.75,0-6.789,3.041-6.789,6.791c0,3.752,3.039,6.793,6.789,6.793h122.248
			c3.75,0,6.792-3.041,6.792-6.793C366.194,313.373,363.152,310.332,359.402,310.332z"/>
		<path fill="#457393" d="M359.402,242.416h-81.496c-3.751,0-6.793,3.041-6.793,6.792c0,3.751,3.042,6.792,6.793,6.792h81.496
			c3.75,0,6.792-3.041,6.792-6.792C366.194,245.457,363.152,242.416,359.402,242.416z"/>
		<path fill="#457393" d="M237.154,256h13.584c3.75,0,6.791-3.041,6.791-6.792c0-3.75-3.041-6.792-6.791-6.792h-13.584
			c-3.75,0-6.789,3.041-6.789,6.792C230.365,252.958,233.404,256,237.154,256z"/>
	</g>
	<path fill="#8A97A6" d="M152.396,224.826c-6.44,4.054-10.341,11.137-10.323,18.747v194.099l-14.738,12.633
		c-1.004,0.885-2.438,1.094-3.655,0.535c-1.217-0.555-1.992-1.775-1.98-3.115V243.573c-0.234-10.972,7.967-20.297,18.879-21.463
		c0.496-0.054,0.995-0.075,1.494-0.066h0.069C145.749,222.028,149.292,222.99,152.396,224.826z"/>
	<path fill="#BBC1C7" d="M203.198,222.043v142.621c0.006,7.281-3.877,14.01-10.182,17.652c-6.305,3.646-14.074,3.646-20.379,0.006
		c6.308-3.641,10.191-10.373,10.188-17.658V222.043H203.198z"/>
</g>
<g>
	<path fill="#FD003A" d="M444.339,108.959c-5.321-7.563-11.764-14.565-18.485-21.286c-6.722-6.721-13.724-13.165-21.286-18.486
		c-41.731-33.328-92.985-52.187-147.04-52.187c-63.578,0-123.234,25.581-168.326,70.673C44.11,132.766,18.528,192.422,18.528,256
		c0,54.335,18.858,105.589,52.189,147.32c5.601,7.28,11.762,14.282,18.484,21.006c6.722,6.722,13.724,12.884,21.006,18.485
		c41.731,33.329,92.985,52.188,147.32,52.188c63.577,0,123.234-25.58,168.326-70.673c45.093-45.093,70.673-104.749,70.673-168.326
		C496.526,201.945,477.668,150.691,444.339,108.959z M75.478,256c0-48.733,19.045-94.386,53.215-128.836
		c34.449-34.169,80.102-53.214,128.835-53.214c39.211,0,76.461,12.323,107.27,35.009l-254.03,254.31
		C87.801,332.461,75.478,295.211,75.478,256z M386.363,384.835c-34.45,34.17-80.103,53.215-128.836,53.215
		c-39.211,0-76.46-12.323-107.271-35.289l254.311-254.03c22.687,30.808,35.01,68.058,35.01,107.27
		C439.577,304.733,420.532,350.386,386.363,384.835z"/>
	<path fill="#E50027" d="M110.207,442.812c41.731,33.329,92.985,52.188,147.32,52.188c63.577,0,123.234-25.58,168.326-70.673
		c45.093-45.093,70.673-104.749,70.673-168.326c0-54.055-18.858-105.309-52.188-147.041c-5.321-7.563-11.764-14.565-18.485-21.286
		L89.201,424.326C95.922,431.048,102.924,437.21,110.207,442.812z M404.567,148.729c22.687,30.809,35.01,68.059,35.01,107.271
		c0,48.733-19.045,94.386-53.214,128.835c-34.45,34.17-80.103,53.215-128.836,53.215c-39.211,0-76.46-12.323-107.271-35.289
		L404.567,148.729z"/>
</g>
</svg>
