<svg xmlns="http://www.w3.org/2000/svg" width="26" height="23">
    <path fill="#B3B3B3" fill-rule="evenodd" d="M20.902 22.425H5.098c-2.409 0-4.373-1.961-4.373-4.378v-6.244c0-.376.3-.676.675-.676.201 0 .376.091.5.23.123-.139.298-.23.5-.23.375 0 .674.3.674.676v6.244c0 1.666 1.355 3.027 3.024 3.027h13.804c1.664 0 3.024-1.356 3.024-3.027v-6.144c0-.376.299-.676.674-.676.202 0 .376.092.5.231.123-.139.298-.231.5-.231.375 0 .675.306.675.676v6.144c0 2.412-1.959 4.378-4.373 4.378zM17.788 6.224c-.17 0-.345-.07-.475-.2l-.03-.031c-.008.01-.011.022-.02.031-.13.135-.3.2-.475.2-.17 0-.345-.07-.475-.2l-2.138-2.141v12.703c0 .375-.3.675-.675.675-.202 0-.377-.091-.5-.229-.123.138-.298.229-.5.229-.375 0-.675-.3-.675-.675V3.883L9.687 6.024c-.26.26-.69.26-.95 0-.009-.009-.012-.021-.02-.031l-.03.031c-.26.26-.69.26-.95 0-.265-.265-.265-.691 0-.956L12.025.775c.125-.13.295-.2.475-.2.175 0 .35.075.475.2L13 .8l.025-.025c.125-.13.295-.2.475-.2.175 0 .35.075.475.2l4.288 4.293c.265.265.265.691 0 .956-.13.135-.3.2-.475.2z"/>
</svg>
