<svg xmlns="http://www.w3.org/2000/svg" width="24" height="24">
    <path fill="#B3B3B3" fill-rule="evenodd" d="M22.607 7.05l-4.243 4.243c-1.172 1.171-3.071 1.171-4.243 0l-2.828 2.828c1.171 1.172 1.171 3.071 0 4.243L7.05 22.607c-1.171 1.171-3.071 1.171-4.242 0l-1.415-1.415c-1.171-1.171-1.171-3.071 0-4.242l4.243-4.243c1.172-1.171 3.071-1.171 4.243 0l2.828-2.828c-1.172-1.172-1.172-3.071 0-4.243l4.243-4.243c1.171-1.171 3.071-1.171 4.242 0l1.415 1.415c1.171 1.171 1.171 3.071 0 4.242zM7.05 14.121l-4.242 4.243c-.391.39-.391 1.024 0 1.414l1.414 1.414c.39.391 1.023.391 1.414 0l4.243-4.242c.39-.391.39-1.024 0-1.414l-.707.707c-.391.39-1.024.39-1.415 0-.39-.391-.39-1.024 0-1.415l.707-.707c-.39-.39-1.023-.39-1.414 0zm14.142-9.899l-1.414-1.414c-.39-.391-1.024-.391-1.414 0L14.121 7.05c-.39.391-.39 1.024 0 1.414l.707-.707c.391-.39 1.024-.39 1.415 0 .39.391.39 1.024 0 1.415l-.707.707c.39.39 1.023.39 1.414 0l4.242-4.243c.391-.391.391-1.024 0-1.414z"/>
</svg>
