<?xml version="1.0" encoding="utf-8"?>
<!-- Generator: Adobe Illustrator 16.0.0, SVG Export Plug-In . SVG Version: 6.00 Build 0)  -->
<!DOCTYPE svg PUBLIC "-//W3C//DTD SVG 1.1//EN" "http://www.w3.org/Graphics/SVG/1.1/DTD/svg11.dtd">
<svg version="1.1" id="Capa_1" xmlns="http://www.w3.org/2000/svg" xmlns:xlink="http://www.w3.org/1999/xlink" x="0px" y="0px"
	 width="512px" height="512px" viewBox="0 0 512 512" enable-background="new 0 0 512 512" xml:space="preserve">
<circle fill="#FFFFFF" cx="256" cy="256.001" r="246.499"/>
<g>
	<path fill="#354D90" d="M512,256.001c0-141.154-114.847-256-256-256c-141.164,0-256,114.846-256,256c0,141.161,114.835,256,256,256
		C397.153,511.999,512,397.162,512,256.001z M16.516,256.001C16.516,123.944,123.952,16.516,256,16.516
		c132.057,0,239.485,107.428,239.485,239.485c0,129.273-102.985,234.887-231.211,239.274l0.517-267.888l46.483,46.484l11.678-11.678
		l-66.375-66.377l-67.533,67.541l11.678,11.678l47.565-47.565l-0.529,267.822C119.521,490.903,16.516,385.291,16.516,256.001z"/>
</g>
</svg>
